<svg width="28" height="28" viewBox="0 0 28 28" fill="none" xmlns="http://www.w3.org/2000/svg">
<rect x="2.75" y="0.75" width="24.5" height="24.5" rx="5.25" fill="black" stroke="black" stroke-width="1.5"/>
<rect x="0.75" y="2.75" width="24.5" height="24.5" rx="5.25" fill="#CBC3BC"/>
<rect x="0.75" y="2.75" width="24.5" height="24.5" rx="5.25" stroke="black" stroke-width="1.5"/>
<g clip-path="url(#clip0_100_269)">
<path d="M9.23718 18.19C8.93851 17.378 8.78918 16.412 8.78918 15.292C8.78918 14.9093 8.80318 14.55 8.83118 14.214C8.86851 13.8687 8.91985 13.542 8.98518 13.234C9.22785 12.1607 9.65251 11.33 10.2592 10.742C10.8658 10.154 11.6125 9.86 12.4992 9.86C13.2645 9.86 13.9225 10.0793 14.4732 10.518C15.0332 10.9567 15.4625 11.582 15.7612 12.394C16.0598 13.1967 16.2092 14.1627 16.2092 15.292C16.2092 15.6653 16.1905 16.0247 16.1532 16.37C16.1252 16.7153 16.0785 17.042 16.0132 17.35C15.7798 18.4233 15.3552 19.254 14.7392 19.842C14.1325 20.43 13.3858 20.724 12.4992 20.724C11.7338 20.724 11.0712 20.5047 10.5112 20.066C9.96051 19.6273 9.53585 19.002 9.23718 18.19ZM14.4172 17.336C14.4825 17.056 14.5292 16.748 14.5572 16.412C14.5852 16.0667 14.5992 15.6933 14.5992 15.292C14.5992 13.9667 14.4172 12.954 14.0532 12.254C13.6985 11.554 13.1805 11.204 12.4992 11.204C12.0232 11.204 11.6218 11.3813 11.2952 11.736C10.9778 12.0813 10.7398 12.5853 10.5812 13.248C10.5158 13.528 10.4692 13.8407 10.4412 14.186C10.4132 14.522 10.3992 14.8907 10.3992 15.292C10.3992 16.6173 10.5765 17.63 10.9312 18.33C11.2952 19.03 11.8178 19.38 12.4992 19.38C12.9752 19.38 13.3765 19.2073 13.7032 18.862C14.0298 18.5073 14.2678 17.9987 14.4172 17.336Z" fill="black"/>
</g>
<defs>
<clipPath id="clip0_100_269">
<rect width="18" height="18" fill="white" transform="translate(4 6)"/>
</clipPath>
</defs>
</svg>
