<svg width="28" height="28" viewBox="0 0 28 28" fill="none" xmlns="http://www.w3.org/2000/svg">
<rect x="2.75" y="0.75" width="24.5" height="24.5" rx="5.25" fill="black" stroke="black" stroke-width="1.5"/>
<rect x="0.75" y="2.75" width="24.5" height="24.5" rx="5.25" fill="#FFF9F2"/>
<rect x="0.75" y="2.75" width="24.5" height="24.5" rx="5.25" stroke="black" stroke-width="1.5"/>
<g clip-path="url(#clip0_100_274)">
<path d="M14.8932 14.704C14.5478 15.3853 13.9598 16.1833 13.1292 17.098C12.8118 17.4433 12.4758 17.798 12.1212 18.162C11.7665 18.5167 11.4352 18.8387 11.1272 19.128H15.7192V20.5H9.20918V19.268C9.63851 18.8573 10.0072 18.498 10.3152 18.19C10.6325 17.8727 10.9125 17.588 11.1552 17.336C11.3978 17.0747 11.6218 16.818 11.8272 16.566C12.3498 15.95 12.7558 15.4273 13.0452 14.998C13.3438 14.5687 13.5538 14.1907 13.6752 13.864C13.8058 13.528 13.8712 13.1967 13.8712 12.87C13.8712 12.3473 13.7172 11.9367 13.4092 11.638C13.1012 11.3393 12.6765 11.19 12.1352 11.19C11.6592 11.19 11.1972 11.302 10.7492 11.526C10.3105 11.7407 9.92785 12.0487 9.60118 12.45L9.30718 11.092C9.67118 10.7093 10.1192 10.4107 10.6512 10.196C11.1832 9.972 11.7478 9.86 12.3452 9.86C13.2878 9.86 14.0345 10.1167 14.5852 10.63C15.1452 11.134 15.4252 11.8153 15.4252 12.674C15.4252 13.3367 15.2478 14.0133 14.8932 14.704Z" fill="black"/>
</g>
<defs>
<clipPath id="clip0_100_274">
<rect width="18" height="18" fill="white" transform="translate(4 6)"/>
</clipPath>
</defs>
</svg>
