<svg width="28" height="28" viewBox="0 0 28 28" fill="none" xmlns="http://www.w3.org/2000/svg">
<rect x="2.75" y="0.75" width="24.5" height="24.5" rx="5.25" fill="black" stroke="black" stroke-width="1.5"/>
<rect x="0.75" y="2.75" width="24.5" height="24.5" rx="5.25" fill="#CBC3BC"/>
<rect x="0.75" y="2.75" width="24.5" height="24.5" rx="5.25" stroke="black" stroke-width="1.5"/>
<g clip-path="url(#clip0_100_279)">
<path d="M13.7172 11.4H9.34918V10.084H15.4252V11.288L12.5832 14.396C13.2178 14.4147 13.7685 14.55 14.2352 14.802C14.7112 15.054 15.0798 15.404 15.3412 15.852C15.6025 16.2907 15.7332 16.8087 15.7332 17.406C15.7332 18.4327 15.3972 19.2447 14.7252 19.842C14.0532 20.43 13.1198 20.724 11.9252 20.724C11.4118 20.724 10.9125 20.6633 10.4272 20.542C9.94185 20.4207 9.53585 20.2573 9.20918 20.052L9.34918 18.736C10.1052 19.2027 10.9638 19.436 11.9252 19.436C12.6345 19.436 13.1898 19.2587 13.5912 18.904C14.0018 18.5493 14.2072 18.0593 14.2072 17.434C14.2072 16.8273 14.0065 16.356 13.6052 16.02C13.2132 15.684 12.6672 15.516 11.9672 15.516C11.8178 15.516 11.6638 15.5253 11.5052 15.544C11.3558 15.5533 11.2065 15.5813 11.0572 15.628L10.6512 14.732L13.7172 11.4Z" fill="black"/>
</g>
<defs>
<clipPath id="clip0_100_279">
<rect width="18" height="18" fill="white" transform="translate(4 6)"/>
</clipPath>
</defs>
</svg>
