<svg width="28" height="28" viewBox="0 0 28 28" fill="none" xmlns="http://www.w3.org/2000/svg">
<rect x="2.75" y="0.75" width="24.5" height="24.5" rx="5.25" fill="black" stroke="black" stroke-width="1.5"/>
<rect x="0.75" y="2.75" width="24.5" height="24.5" rx="5.25" fill="#CBC3BC"/>
<rect x="0.75" y="2.75" width="24.5" height="24.5" rx="5.25" stroke="black" stroke-width="1.5"/>
<g clip-path="url(#clip0_100_279)">
<path d="M14.2172 11.4H9.84918V10.084H15.9252V11.288L13.0832 14.396C13.7178 14.4147 14.2685 14.55 14.7352 14.802C15.2112 15.054 15.5798 15.404 15.8412 15.852C16.1025 16.2907 16.2332 16.8087 16.2332 17.406C16.2332 18.4327 15.8972 19.2447 15.2252 19.842C14.5532 20.43 13.6198 20.724 12.4252 20.724C11.9118 20.724 11.4125 20.6633 10.9272 20.542C10.4418 20.4207 10.0358 20.2573 9.70918 20.052L9.84918 18.736C10.6052 19.2027 11.4638 19.436 12.4252 19.436C13.1345 19.436 13.6898 19.2587 14.0912 18.904C14.5018 18.5493 14.7072 18.0593 14.7072 17.434C14.7072 16.8273 14.5065 16.356 14.1052 16.02C13.7132 15.684 13.1672 15.516 12.4672 15.516C12.3178 15.516 12.1638 15.5253 12.0052 15.544C11.8558 15.5533 11.7065 15.5813 11.5572 15.628L11.1512 14.732L14.2172 11.4Z" fill="black"/>
</g>
<defs>
<clipPath id="clip0_100_279">
<rect width="18" height="18" fill="white" transform="translate(4 6)"/>
</clipPath>
</defs>
</svg>
