<svg xmlns="http://www.w3.org/2000/svg" width="110" height="81" viewBox="0 0 110 81" fill="none">
  <g clip-path="url(#clip0_32_243)">
    <path d="M55 79.45C84.8234 79.45 109 65.1231 109 47.45C109 29.7769 84.8234 15.45 55 15.45C25.1766 15.45 1 29.7769 1 47.45C1 65.1231 25.1766 79.45 55 79.45Z" fill="#F7F1EA" stroke="black" stroke-width="1.5" stroke-miterlimit="10"/>
    <path d="M55 65.45C73.6396 65.45 88.75 57.8388 88.75 48.45C88.75 39.0612 73.6396 31.45 55 31.45C36.3604 31.45 21.25 39.0612 21.25 48.45C21.25 57.8388 36.3604 65.45 55 65.45Z" fill="#E7E0D9" stroke="black" stroke-width="1.5" stroke-miterlimit="10"/>
    <path d="M28.15 21.28C26.19 21.45 27.04 28.34 27.12 29.47C27.24 31.34 27.52 33.2 27.64 35.06C27.74 36.69 27.77 38.32 27.7 39.95C27.62 41.86 27.42 43.74 27.27 45.64C27.09 48.01 28.82 50.45 30.35 52.13C36.1 58.44 45.74 59.93 53.81 58.97C57.02 58.59 60.18 58.29 63.29 57.43C66.4 56.57 69.36 55.54 72.29 54.29C73.66 53.71 74.94 52.9 76.22 52.13C77.5 51.36 78.77 50.5 79.83 49.43C81.08 48.18 82.51 46.93 82.77 45.07C82.88 44.28 82.7 43.45 82.63 42.67C82.56 41.81 82.52 40.94 82.49 40.07C82.44 38.33 82.46 36.6 82.44 34.86C82.41 32.32 82.42 29.78 82.49 27.24C82.57 24.44 83.03 21.67 83.05 18.88C83.05 18.46 83.29 17.44 83.03 17.08C82.77 16.72 82.24 16.89 81.86 16.92C81.48 16.95 81.09 16.98 80.71 17.01C79.7 17.09 78.69 17.17 77.68 17.26C74.9 17.49 72.11 17.71 69.33 17.94C65.93 18.22 62.53 18.49 59.12 18.77C55.71 19.05 52.03 19.35 48.48 19.63C45.27 19.89 42.05 20.15 38.84 20.41C36.43 20.61 34.02 20.8 31.61 21C30.48 21.09 29.36 21.18 28.23 21.27C28.2 21.27 28.17 21.27 28.14 21.27L28.15 21.28Z" fill="#53453F" stroke="black" stroke-width="1.5" stroke-miterlimit="10"/>
    <path d="M77.49 14.56C80.0802 14.56 82.18 12.4602 82.18 9.86999C82.18 7.27978 80.0802 5.17999 77.49 5.17999C74.8998 5.17999 72.8 7.27978 72.8 9.86999C72.8 12.4602 74.8998 14.56 77.49 14.56Z" fill="#F78157" stroke="black" stroke-width="1.5" stroke-miterlimit="10"/>
    <path d="M39.02 13.92C41.6102 13.92 43.71 11.8202 43.71 9.22999C43.71 6.63978 41.6102 4.53999 39.02 4.53999C36.4298 4.53999 34.33 6.63978 34.33 9.22999C34.33 11.8202 36.4298 13.92 39.02 13.92Z" fill="#F78157" stroke="black" stroke-width="1.5" stroke-miterlimit="10"/>
    <path d="M70.7 10.38C73.2902 10.38 75.39 8.28022 75.39 5.69C75.39 3.09978 73.2902 1 70.7 1C68.1098 1 66.01 3.09978 66.01 5.69C66.01 8.28022 68.1098 10.38 70.7 10.38Z" fill="#F78157" stroke="black" stroke-width="1.5" stroke-miterlimit="10"/>
    <path d="M62.73 13.01C65.3202 13.01 67.42 10.9102 67.42 8.32C67.42 5.72979 65.3202 3.63 62.73 3.63C60.1398 3.63 58.04 5.72979 58.04 8.32C58.04 10.9102 60.1398 13.01 62.73 13.01Z" fill="#F78157" stroke="black" stroke-width="1.5" stroke-miterlimit="10"/>
    <path d="M71.72 16.07C74.3102 16.07 76.41 13.9702 76.41 11.38C76.41 8.78979 74.3102 6.69 71.72 6.69C69.1298 6.69 67.03 8.78979 67.03 11.38C67.03 13.9702 69.1298 16.07 71.72 16.07Z" fill="#F78157" stroke="black" stroke-width="1.5" stroke-miterlimit="10"/>
    <path d="M79.66 19.45C82.2502 19.45 84.35 17.3502 84.35 14.76C84.35 12.1698 82.2502 10.07 79.66 10.07C77.0698 10.07 74.97 12.1698 74.97 14.76C74.97 17.3502 77.0698 19.45 79.66 19.45Z" fill="#F78157" stroke="black" stroke-width="1.5" stroke-miterlimit="10"/>
    <path d="M72.42 20.7C75.0102 20.7 77.11 18.6002 77.11 16.01C77.11 13.4198 75.0102 11.32 72.42 11.32C69.8298 11.32 67.73 13.4198 67.73 16.01C67.73 18.6002 69.8298 20.7 72.42 20.7Z" fill="#F78157" stroke="black" stroke-width="1.5" stroke-miterlimit="10"/>
    <path d="M76.41 25.39C79.0002 25.39 81.1 23.2902 81.1 20.7C81.1 18.1098 79.0002 16.01 76.41 16.01C73.8198 16.01 71.72 18.1098 71.72 20.7C71.72 23.2902 73.8198 25.39 76.41 25.39Z" fill="#F78157" stroke="black" stroke-width="1.5" stroke-miterlimit="10"/>
    <path d="M55.67 13.29C58.2602 13.29 60.36 11.1902 60.36 8.6C60.36 6.00979 58.2602 3.91 55.67 3.91C53.0798 3.91 50.98 6.00979 50.98 8.6C50.98 11.1902 53.0798 13.29 55.67 13.29Z" fill="#F78157" stroke="black" stroke-width="1.5" stroke-miterlimit="10"/>
    <path d="M47.3 15.35C49.8902 15.35 51.99 13.2502 51.99 10.66C51.99 8.06979 49.8902 5.97 47.3 5.97C44.7098 5.97 42.61 8.06979 42.61 10.66C42.61 13.2502 44.7098 15.35 47.3 15.35Z" fill="#F78157" stroke="black" stroke-width="1.5" stroke-miterlimit="10"/>
    <path d="M41.19 18.8C43.7802 18.8 45.88 16.7002 45.88 14.11C45.88 11.5198 43.7802 9.42 41.19 9.42C38.5998 9.42 36.5 11.5198 36.5 14.11C36.5 16.7002 38.5998 18.8 41.19 18.8Z" fill="#F78157" stroke="black" stroke-width="1.5" stroke-miterlimit="10"/>
    <path d="M47.91 20.47C50.5002 20.47 52.6 18.3702 52.6 15.78C52.6 13.1898 50.5002 11.09 47.91 11.09C45.3198 11.09 43.22 13.1898 43.22 15.78C43.22 18.3702 45.3198 20.47 47.91 20.47Z" fill="#F78157" stroke="black" stroke-width="1.5" stroke-miterlimit="10"/>
    <path d="M55.06 19.7C57.6502 19.7 59.75 17.6002 59.75 15.01C59.75 12.4198 57.6502 10.32 55.06 10.32C52.4698 10.32 50.37 12.4198 50.37 15.01C50.37 17.6002 52.4698 19.7 55.06 19.7Z" fill="#F78157" stroke="black" stroke-width="1.5" stroke-miterlimit="10"/>
    <path d="M63.84 18.21C66.4302 18.21 68.53 16.1102 68.53 13.52C68.53 10.9298 66.4302 8.83 63.84 8.83C61.2498 8.83 59.15 10.9298 59.15 13.52C59.15 16.1102 61.2498 18.21 63.84 18.21Z" fill="#F78157" stroke="black" stroke-width="1.5" stroke-miterlimit="10"/>
    <path d="M34.93 20.22C37.5202 20.22 39.62 18.1202 39.62 15.53C39.62 12.9398 37.5202 10.84 34.93 10.84C32.3398 10.84 30.24 12.9398 30.24 15.53C30.24 18.1202 32.3398 20.22 34.93 20.22Z" fill="#F78157" stroke="black" stroke-width="1.5" stroke-miterlimit="10"/>
    <path d="M32.63 24.84C35.2202 24.84 37.32 22.7402 37.32 20.15C37.32 17.5598 35.2202 15.46 32.63 15.46C30.0398 15.46 27.94 17.5598 27.94 20.15C27.94 22.7402 30.0398 24.84 32.63 24.84Z" fill="#F78157" stroke="black" stroke-width="1.5" stroke-miterlimit="10"/>
    <path d="M69.85 29.78C72.4402 29.78 74.54 27.6802 74.54 25.09C74.54 22.4998 72.4402 20.4 69.85 20.4C67.2598 20.4 65.16 22.4998 65.16 25.09C65.16 27.6802 67.2598 29.78 69.85 29.78Z" fill="#F78157" stroke="black" stroke-width="1.5" stroke-miterlimit="10"/>
    <path d="M34.3 29.63C36.8902 29.63 38.99 27.5302 38.99 24.94C38.99 22.3498 36.8902 20.25 34.3 20.25C31.7098 20.25 29.61 22.3498 29.61 24.94C29.61 27.5302 31.7098 29.63 34.3 29.63Z" fill="#F78157" stroke="black" stroke-width="1.5" stroke-miterlimit="10"/>
    <path d="M62.45 32C65.0402 32 67.14 29.9002 67.14 27.31C67.14 24.7198 65.0402 22.62 62.45 22.62C59.8598 22.62 57.76 24.7198 57.76 27.31C57.76 29.9002 59.8598 32 62.45 32Z" fill="#F78157" stroke="black" stroke-width="1.5" stroke-miterlimit="10"/>
    <path d="M56.43 34.97C59.0202 34.97 61.12 32.8702 61.12 30.28C61.12 27.6898 59.0202 25.59 56.43 25.59C53.8398 25.59 51.74 27.6898 51.74 30.28C51.74 32.8702 53.8398 34.97 56.43 34.97Z" fill="#F78157" stroke="black" stroke-width="1.5" stroke-miterlimit="10"/>
    <path d="M42 31.47C44.5902 31.47 46.69 29.3702 46.69 26.78C46.69 24.1898 44.5902 22.09 42 22.09C39.4098 22.09 37.31 24.1898 37.31 26.78C37.31 29.3702 39.4098 31.47 42 31.47Z" fill="#F78157" stroke="black" stroke-width="1.5" stroke-miterlimit="10"/>
    <path d="M48.47 34.59C51.0602 34.59 53.16 32.4902 53.16 29.9C53.16 27.3098 51.0602 25.21 48.47 25.21C45.8798 25.21 43.78 27.3098 43.78 29.9C43.78 32.4902 45.8798 34.59 48.47 34.59Z" fill="#F78157" stroke="black" stroke-width="1.5" stroke-miterlimit="10"/>
    <path d="M40.26 24.15C42.8502 24.15 44.95 22.0502 44.95 19.46C44.95 16.8698 42.8502 14.77 40.26 14.77C37.6698 14.77 35.57 16.8698 35.57 19.46C35.57 22.0502 37.6698 24.15 40.26 24.15Z" fill="#F78157" stroke="black" stroke-width="1.5" stroke-miterlimit="10"/>
    <path d="M48.04 25.5C50.6302 25.5 52.73 23.4002 52.73 20.81C52.73 18.2198 50.6302 16.12 48.04 16.12C45.4498 16.12 43.35 18.2198 43.35 20.81C43.35 23.4002 45.4498 25.5 48.04 25.5Z" fill="#F78157" stroke="black" stroke-width="1.5" stroke-miterlimit="10"/>
    <path d="M54.12 28.05C56.7102 28.05 58.81 25.9502 58.81 23.36C58.81 20.7698 56.7102 18.67 54.12 18.67C51.5298 18.67 49.43 20.7698 49.43 23.36C49.43 25.9502 51.5298 28.05 54.12 28.05Z" fill="#F78157" stroke="black" stroke-width="1.5" stroke-miterlimit="10"/>
    <path d="M60.71 24.69C63.3002 24.69 65.4 22.5902 65.4 20C65.4 17.4098 63.3002 15.31 60.71 15.31C58.1198 15.31 56.02 17.4098 56.02 20C56.02 22.5902 58.1198 24.69 60.71 24.69Z" fill="#F78157" stroke="black" stroke-width="1.5" stroke-miterlimit="10"/>
    <path d="M67.77 24.41C70.3602 24.41 72.46 22.3102 72.46 19.72C72.46 17.1298 70.3602 15.03 67.77 15.03C65.1798 15.03 63.08 17.1298 63.08 19.72C63.08 22.3102 65.1798 24.41 67.77 24.41Z" fill="#F78157" stroke="black" stroke-width="1.5" stroke-miterlimit="10"/>
  </g>
  <defs>
    <clipPath id="clip0_32_243">
      <rect width="109.5" height="79.95" fill="white" transform="translate(0.25 0.25)"/>
    </clipPath>
  </defs>
</svg>