<svg xmlns="http://www.w3.org/2000/svg" width="111" height="67" viewBox="0 0 111 67" fill="none">
  <g clip-path="url(#clip0_32_203)">
    <path d="M55.5 65.45C85.3234 65.45 109.5 51.1231 109.5 33.45C109.5 15.7769 85.3234 1.45 55.5 1.45C25.6766 1.45 1.5 15.7769 1.5 33.45C1.5 51.1231 25.6766 65.45 55.5 65.45Z" fill="#F7F1EA" stroke="black" stroke-width="1.5" stroke-miterlimit="10"/>
    <path d="M55.5 51.45C74.1396 51.45 89.25 43.8388 89.25 34.45C89.25 25.0612 74.1396 17.45 55.5 17.45C36.8604 17.45 21.75 25.0612 21.75 34.45C21.75 43.8388 36.8604 51.45 55.5 51.45Z" fill="#E7E0D9" stroke="black" stroke-width="1.5" stroke-miterlimit="10"/>
    <path d="M83.8 23.8L69.31 13.36L44.78 13.81L27.14 29.65C26.75 30.68 26.67 31.8 26.7 32.89C26.72 33.81 26.66 35.16 27.06 35.98C28.13 38.17 30.01 39.12 31.84 40.58C33.16 41.62 34.53 42.16 36.03 42.9C41.11 45.41 46.46 44.37 51.8 43.49C58.02 42.46 64.26 41.5 70.4 40.08C72.61 39.57 74.91 38.8 77.08 38.11C78.65 37.61 80.16 36.95 81.67 36.31C82.94 35.77 84.21 35.02 84.89 33.76C85.38 32.86 85.5 31.8 85.58 30.78C85.7 29.33 85.96 27.68 85.67 26.24C85.46 25.2 84.76 24.27 83.81 23.79" fill="#FFF9F2"/>
    <path d="M83.8 23.8L69.31 13.36L44.78 13.81L27.14 29.65C26.75 30.68 26.67 31.8 26.7 32.89C26.72 33.81 26.66 35.16 27.06 35.98C28.13 38.17 30.01 39.12 31.84 40.58C33.16 41.62 34.53 42.16 36.03 42.9C41.11 45.41 46.46 44.37 51.8 43.49C58.02 42.46 64.26 41.5 70.4 40.08C72.61 39.57 74.91 38.8 77.08 38.11C78.65 37.61 80.16 36.95 81.67 36.31C82.94 35.77 84.21 35.02 84.89 33.76C85.38 32.86 85.5 31.8 85.58 30.78C85.7 29.33 85.96 27.68 85.67 26.24C85.46 25.2 84.76 24.27 83.81 23.79" stroke="black" stroke-width="1.5" stroke-miterlimit="10"/>
    <path d="M26.36 18.88C24.75 20.75 21.43 24.84 24.63 28.69C28.87 31.65 36.03 33.1 41.44 30.57C52.61 25.55 65.96 21.35 77.64 23.18C82.33 24.33 86.69 24.44 89.52 19.75C91.99 15.05 90.08 13.06 85.27 11.08C72.64 4.99999 61.71 3.13999 52.29 4.97999C40.7 6.63999 32.4 11.62 26.37 18.89L26.36 18.88Z" fill="#F2895F" stroke="black" stroke-width="1.5" stroke-miterlimit="10"/>
    <path d="M23.98 22.66C25.89 24.31 28.33 25.34 30.85 25.57C32.32 25.7 33.8 25.56 35.28 25.59C36.76 25.62 38.28 25.84 39.54 26.62C40.8 27.4 41.73 28.84 41.55 30.3" stroke="black" stroke-width="1.5" stroke-miterlimit="10"/>
    <path d="M29.71 15.44C30.87 16.6 32.44 17.3 34.04 17.67C37.56 18.49 41.02 17.85 44.52 18.79C44.98 18.91 45.43 19.05 45.87 19.24C47.6 19.98 48.77 21.37 49.31 23.15C49.69 24.42 49.78 25.76 49.86 27.08" stroke="black" stroke-width="1.5" stroke-miterlimit="10"/>
    <path d="M38.47 9.20999C39.47 10.1 41.32 10.29 42.57 10.6C44.4 11.05 46.28 11.24 48.1 11.61C49.92 11.98 51.86 12.5 53.26 13.72C56.28 16.36 58.22 20.21 58.68 24.18" stroke="black" stroke-width="1.5" stroke-miterlimit="10"/>
    <path d="M53.23 4.84999C55.32 5.43999 57.31 6.33999 59.14 7.49999C60.79 8.54999 62.22 9.65999 63.38 11.25C63.57 11.51 63.7 11.8 63.83 12.09C64.52 13.65 65.18 15.17 65.68 16.8C66.28 18.74 66.71 20.73 67.12 22.72" stroke="black" stroke-width="1.5" stroke-miterlimit="10"/>
    <path d="M80.82 9.17999C81.83 9.98999 82.18 10.54 82.93 11.59C83.41 12.26 83.9 12.95 84.14 13.74C84.45 14.73 84.35 15.8 84.21 16.83C84.05 17.97 83.84 19.1 83.58 20.22C83.26 21.59 82.8 23.03 81.68 23.88" stroke="black" stroke-width="1.5" stroke-miterlimit="10"/>
    <path d="M69.1 5.39999C71.16 6.22999 73.2 8.19999 74.09 10.23C74.72 11.67 75.11 13.3 75.45 14.83C76.04 17.48 76.62 20.3 75.71 22.85" stroke="black" stroke-width="1.5" stroke-miterlimit="10"/>
  </g>
  <defs>
    <clipPath id="clip0_32_203">
      <rect width="109.5" height="65.5" fill="white" transform="translate(0.75 0.699997)"/>
    </clipPath>
  </defs>
</svg>