<svg width="20" height="20" viewBox="0 0 20 20" fill="none" xmlns="http://www.w3.org/2000/svg">
<path fill-rule="evenodd" clip-rule="evenodd" d="M9.99646 0C7.62248 0.0012701 5.32634 0.868282 3.51863 2.446C1.71091 4.02373 0.509489 6.20928 0.12919 8.61186C-0.251109 11.0144 0.214508 13.4774 1.44279 15.5603C2.67108 17.6432 4.58194 19.2102 6.83368 19.9812C7.33045 20.0762 7.51757 19.7588 7.51757 19.4888C7.51757 19.2189 7.50763 18.4362 7.50432 17.5805C4.7224 18.2002 4.13456 16.37 4.13456 16.37C3.68084 15.1816 3.0251 14.8692 3.0251 14.8692C2.11767 14.2342 3.093 14.2461 3.093 14.2461C4.09813 14.3191 4.62637 15.3038 4.62637 15.3038C5.51724 16.8708 6.96615 16.4175 7.53578 16.1527C7.6252 15.4888 7.88518 15.0372 8.17165 14.7809C5.94943 14.5228 3.6146 13.6434 3.6146 9.7147C3.60083 8.69582 3.96959 7.7105 4.64458 6.9626C4.54191 6.70453 4.19913 5.6621 4.74227 4.24615C4.74227 4.24615 5.58182 3.97111 7.49273 5.29708C9.13179 4.83751 10.8611 4.83751 12.5002 5.29708C14.4094 3.97111 15.2473 4.24615 15.2473 4.24615C15.7921 5.6587 15.4493 6.70114 15.3467 6.9626C16.0238 7.71062 16.3933 8.69766 16.3783 9.71809C16.3783 13.6552 14.0385 14.5228 11.813 14.7758C12.1707 15.095 12.4902 15.718 12.4902 16.6756C12.4902 18.0474 12.4787 19.151 12.4787 19.4888C12.4787 19.7622 12.6591 20.0813 13.1658 19.9812C15.4179 19.2101 17.3289 17.6428 18.5572 15.5595C19.7854 13.4763 20.2508 11.013 19.8701 8.61018C19.4893 6.20738 18.2873 4.02181 16.479 2.44436C14.6707 0.866906 12.374 0.000465046 9.99976 0H9.99646Z" fill="#6C5F59"/>
</svg>
