<svg xmlns="http://www.w3.org/2000/svg" width="110" height="75" viewBox="0 0 110 75" fill="none">
  <g clip-path="url(#clip0_32_277)">
    <path d="M55 73.45C84.8234 73.45 109 59.1231 109 41.45C109 23.7769 84.8234 9.44998 55 9.44998C25.1766 9.44998 1 23.7769 1 41.45C1 59.1231 25.1766 73.45 55 73.45Z" fill="#F7F1EA" stroke="black" stroke-width="1.5" stroke-miterlimit="10"/>
    <path d="M55 59.45C73.6396 59.45 88.75 51.8388 88.75 42.45C88.75 33.0611 73.6396 25.45 55 25.45C36.3604 25.45 21.25 33.0611 21.25 42.45C21.25 51.8388 36.3604 59.45 55 59.45Z" fill="#E7E0D9" stroke="black" stroke-width="1.5" stroke-miterlimit="10"/>
    <path d="M55 12.81C55 8.26998 47.03 3.08998 37.2 3.08998C27.37 3.08998 19.4 8.26998 19.4 12.81V38.02C21.77 48.83 50.24 51.04 54.99 38.02V12.81H55Z" fill="#53453F" stroke="black" stroke-width="1.5" stroke-miterlimit="10"/>
    <path d="M37.2 21.67C45.7162 21.67 52.62 18.0614 52.62 13.61C52.62 9.15857 45.7162 5.54999 37.2 5.54999C28.6838 5.54999 21.78 9.15857 21.78 13.61C21.78 18.0614 28.6838 21.67 37.2 21.67Z" fill="#FFF9F2" stroke="black" stroke-width="1.5" stroke-miterlimit="10"/>
    <path d="M40.53 16.76C40.53 16.76 40.44 16.8 40.41 16.82C40.15 16.94 39.85 17 39.57 17.07C38.21 17.4 36.97 18.06 35.67 18.58C34.33 19.11 32.96 19.2 31.63 18.56C30.97 18.24 30.38 17.77 29.92 17.2C29.46 16.63 29.16 15.92 28.69 15.34C28.29 14.85 27.69 14.58 27.31 14.07C26.97 13.61 26.93 12.98 27.08 12.43C27.44 11.13 28.39 10.17 29.78 10.1C30.09 10.09 30.39 10.11 30.69 10.14C32.14 10.27 33.64 10.38 35.01 9.88998C35.46 9.72998 35.89 9.49998 36.35 9.37998C36.81 9.25998 37.33 9.24998 37.73 9.50998C38.42 11.03 39.1 12.55 39.79 14.06C40.11 14.78 40.49 15.49 40.77 16.23C40.84 16.42 40.88 16.43 40.75 16.6C40.7 16.67 40.61 16.72 40.52 16.77L40.53 16.76Z" fill="#CFE89A" stroke="black" stroke-width="1.5" stroke-miterlimit="10"/>
    <path d="M46.1 11.1C46.18 11.9 46.29 13.02 46.24 13.83C46.21 14.22 46.16 14.63 46.01 14.99C45.83 15.42 45.43 15.75 45.15 16.11C44.76 16.62 44.47 17.18 44.05 17.66C43.54 18.24 42.94 18.62 42.22 18.84C41.4 19.09 40.53 19.02 39.71 18.84C38.91 18.66 38.19 18.28 37.43 18C36.95 17.82 36.48 17.55 35.97 17.52C35.57 17.5 35.18 17.38 34.82 17.2C34.15 16.84 34 16.26 33.94 15.5C33.88 14.83 34.17 13.92 34.34 13.27" fill="#F2895F"/>
    <path d="M46.1 11.1C46.18 11.9 46.29 13.02 46.24 13.83C46.21 14.22 46.16 14.63 46.01 14.99C45.83 15.42 45.43 15.75 45.15 16.11C44.76 16.62 44.47 17.18 44.05 17.66C43.54 18.24 42.94 18.62 42.22 18.84C41.4 19.09 40.53 19.02 39.71 18.84C38.91 18.66 38.19 18.28 37.43 18C36.95 17.82 36.48 17.55 35.97 17.52C35.57 17.5 35.18 17.38 34.82 17.2C34.15 16.84 34 16.26 33.94 15.5C33.88 14.83 34.17 13.92 34.34 13.27" stroke="black" stroke-width="1.5" stroke-miterlimit="10"/>
    <path d="M37.47 15.08C37.71 15.16 37.94 15.25 38.18 15.34C39.34 15.8 40.62 15.92 41.85 15.65C42.11 15.59 42.38 15.51 42.61 15.38C42.88 15.23 43.11 15.02 43.34 14.81C43.81 14.37 44.26 13.87 44.76 13.46C45.49 12.87 46.01 12.52 46.09 11.48C46.2 10.16 45.35 9.39998 44.17 8.95998C43.42 8.67998 42.62 8.56998 41.83 8.45998C39.96 8.20998 38.42 8.41998 37.1 9.88998C36.86 10.15 36.7 10.42 36.53 10.71C36.3 11.1 36.07 11.57 35.73 11.87C35.39 12.17 34.94 12.3 34.61 12.68C34.1 13.26 34.33 14.06 34.96 14.47C35.47 14.8 36.09 14.79 36.67 14.88C36.96 14.92 37.22 14.99 37.49 15.08H37.47Z" fill="#F2895F" stroke="black" stroke-width="1.5" stroke-miterlimit="10"/>
    <path d="M90.59 10.55C90.59 6.00999 82.62 0.829987 72.79 0.829987C62.96 0.829987 54.99 6.00999 54.99 10.55V35.76C57.36 46.57 85.83 48.78 90.58 35.76V10.55H90.59Z" fill="#53453F" stroke="black" stroke-width="1.5" stroke-miterlimit="10"/>
    <path d="M72.8 19.4C81.3162 19.4 88.22 15.7914 88.22 11.34C88.22 6.88857 81.3162 3.27998 72.8 3.27998C64.2838 3.27998 57.38 6.88857 57.38 11.34C57.38 15.7914 64.2838 19.4 72.8 19.4Z" fill="#FFF9F2" stroke="black" stroke-width="1.5" stroke-miterlimit="10"/>
    <path d="M76.13 14.5C76.13 14.5 76.04 14.54 76.01 14.56C75.75 14.68 75.45 14.74 75.17 14.81C73.81 15.14 72.57 15.8 71.27 16.32C69.93 16.85 68.56 16.94 67.23 16.3C66.57 15.98 65.98 15.51 65.52 14.94C65.06 14.37 64.76 13.66 64.29 13.08C63.89 12.59 63.29 12.32 62.91 11.81C62.57 11.35 62.53 10.72 62.68 10.17C63.04 8.86998 63.99 7.90998 65.38 7.83998C65.69 7.82998 65.99 7.84998 66.29 7.87998C67.74 8.00998 69.24 8.11998 70.61 7.62998C71.06 7.46998 71.49 7.23998 71.95 7.11998C72.41 6.99998 72.93 6.98998 73.33 7.24998C74.02 8.76998 74.7 10.29 75.39 11.8C75.71 12.52 76.09 13.23 76.37 13.97C76.44 14.16 76.48 14.17 76.35 14.34C76.3 14.41 76.21 14.46 76.12 14.51L76.13 14.5Z" fill="#CFE89A" stroke="black" stroke-width="1.5" stroke-miterlimit="10"/>
    <path d="M81.69 8.83998C81.77 9.63998 81.88 10.76 81.83 11.57C81.8 11.96 81.75 12.37 81.6 12.73C81.42 13.16 81.02 13.49 80.74 13.85C80.35 14.36 80.06 14.92 79.64 15.4C79.13 15.98 78.53 16.36 77.81 16.58C76.99 16.83 76.12 16.76 75.3 16.58C74.5 16.4 73.89 15.91 73.02 15.74C70.47 15.25 70.03 14.38 69.96 13.34C69.9 12.67 70.13 11.1 70.3 10.45" fill="#F2895F"/>
    <path d="M81.69 8.83998C81.77 9.63998 81.88 10.76 81.83 11.57C81.8 11.96 81.75 12.37 81.6 12.73C81.42 13.16 81.02 13.49 80.74 13.85C80.35 14.36 80.06 14.92 79.64 15.4C79.13 15.98 78.53 16.36 77.81 16.58C76.99 16.83 76.12 16.76 75.3 16.58C74.5 16.4 73.89 15.91 73.02 15.74C70.47 15.25 70.03 14.38 69.96 13.34C69.9 12.67 70.13 11.1 70.3 10.45" stroke="black" stroke-width="1.5" stroke-miterlimit="10"/>
    <path d="M73.07 12.81C73.07 12.81 73.12 12.83 73.14 12.84C73.94 13.19 74.57 13.54 75.45 13.65C76.33 13.76 77.21 13.61 78.01 13.29C79.09 12.87 79.48 11.89 80.35 11.2C81.08 10.61 81.6 10.26 81.68 9.21998C81.79 7.89998 80.94 7.13998 79.76 6.69998C79.01 6.41998 78.21 6.30998 77.42 6.19998C75.55 5.94998 74.01 6.15998 72.69 7.62998C72.34 8.00998 72.13 8.49998 71.75 8.84998C71.37 9.19998 70.87 9.42998 70.55 9.85998C70.15 10.39 70.24 11.24 70.7 11.69C71.4 12.37 72.21 12.45 73.07 12.82V12.81Z" fill="#F2895F" stroke="black" stroke-width="1.5" stroke-miterlimit="10"/>
    <path d="M76.43 29.93C76.43 25.39 68.46 20.21 58.63 20.21C48.8 20.21 40.83 25.39 40.83 29.93V55.14C43.2 65.95 71.67 68.16 76.42 55.14V29.93H76.43Z" fill="#53453F" stroke="black" stroke-width="1.5" stroke-miterlimit="10"/>
    <path d="M58.64 38.78C67.1562 38.78 74.06 35.1714 74.06 30.72C74.06 26.2686 67.1562 22.66 58.64 22.66C50.1238 22.66 43.22 26.2686 43.22 30.72C43.22 35.1714 50.1238 38.78 58.64 38.78Z" fill="#FFF9F2" stroke="black" stroke-width="1.5" stroke-miterlimit="10"/>
    <path d="M61.97 33.88C61.97 33.88 61.88 33.92 61.85 33.94C61.59 34.06 61.29 34.12 61.01 34.19C59.65 34.52 58.41 35.18 57.11 35.7C55.77 36.23 54.4 36.32 53.07 35.68C52.41 35.36 51.82 34.89 51.36 34.32C50.9 33.75 50.6 33.04 50.13 32.46C49.73 31.97 49.13 31.7 48.75 31.19C48.41 30.73 48.37 30.1 48.52 29.55C48.88 28.25 49.83 27.29 51.22 27.22C51.53 27.21 51.83 27.23 52.13 27.26C53.58 27.39 55.08 27.5 56.45 27.01C56.9 26.85 57.33 26.62 57.79 26.5C58.25 26.38 58.77 26.37 59.17 26.63C59.86 28.15 60.54 29.67 61.23 31.18C61.55 31.9 61.93 32.61 62.21 33.35C62.28 33.54 62.32 33.55 62.19 33.72C62.14 33.79 62.05 33.84 61.96 33.89L61.97 33.88Z" fill="#CFE89A" stroke="black" stroke-width="1.5" stroke-miterlimit="10"/>
    <path d="M67.06 28.22C67.17 29.43 67.19 30.64 67.28 31.85C67.32 32.35 67.22 32.7 66.91 33.1C66.63 33.46 66.34 33.77 66.02 34.09C65.81 34.3 65.66 34.56 65.47 34.78C64.96 35.36 64.36 35.74 63.64 35.96C62.82 36.21 61.95 36.14 61.13 35.96C60.33 35.78 59.61 35.4 58.85 35.12C58.37 34.94 57.9 34.67 57.39 34.64C56.99 34.62 56.6 34.5 56.24 34.32C55.57 33.96 55.42 33.38 55.36 32.62C55.3 31.95 55.59 31.04 55.76 30.39" fill="#F2895F"/>
    <path d="M67.06 28.22C67.17 29.43 67.19 30.64 67.28 31.85C67.32 32.35 67.22 32.7 66.91 33.1C66.63 33.46 66.34 33.77 66.02 34.09C65.81 34.3 65.66 34.56 65.47 34.78C64.96 35.36 64.36 35.74 63.64 35.96C62.82 36.21 61.95 36.14 61.13 35.96C60.33 35.78 59.61 35.4 58.85 35.12C58.37 34.94 57.9 34.67 57.39 34.64C56.99 34.62 56.6 34.5 56.24 34.32C55.57 33.96 55.42 33.38 55.36 32.62C55.3 31.95 55.59 31.04 55.76 30.39" stroke="black" stroke-width="1.5" stroke-miterlimit="10"/>
    <path d="M58.91 32.19C59.83 32.56 60.47 33.17 61.5 33.16C62.44 33.15 63.42 32.92 64.16 32.3C64.54 31.98 64.84 31.57 65.22 31.25C65.79 30.76 66.55 30.44 66.89 29.78C67.05 29.46 67.1 29.09 67.1 28.74C67.1 27.89 66.82 26.96 66.15 26.39C65.41 25.76 64.19 25.7 63.27 25.58C61.4 25.33 59.86 25.54 58.54 27.01C58.3 27.27 58.14 27.54 57.97 27.83C57.74 28.22 57.51 28.69 57.17 28.99C56.83 29.29 56.38 29.42 56.05 29.8C55.54 30.38 55.77 31.18 56.4 31.59C57.12 32.05 58.14 31.87 58.93 32.19H58.91Z" fill="#F2895F" stroke="black" stroke-width="1.5" stroke-miterlimit="10"/>
  </g>
  <defs>
    <clipPath id="clip0_32_277">
      <rect width="109.5" height="74.12" fill="white" transform="translate(0.25 0.0799866)"/>
    </clipPath>
  </defs>
</svg>