<svg width="28" height="28" viewBox="0 0 28 28" fill="none" xmlns="http://www.w3.org/2000/svg">
<rect x="2.75" y="0.75" width="24.5" height="24.5" rx="5.25" fill="black" stroke="black" stroke-width="1.5"/>
<rect x="0.75" y="2.75" width="24.5" height="24.5" rx="5.25" fill="#CBC3BC"/>
<rect x="0.75" y="2.75" width="24.5" height="24.5" rx="5.25" stroke="black" stroke-width="1.5"/>
<g clip-path="url(#clip0_3247_3566)">
<path d="M15.5339 19.884C14.8432 20.444 13.9006 20.724 12.7059 20.724C12.2952 20.724 11.8706 20.6867 11.4319 20.612C10.9932 20.5373 10.5826 20.4393 10.1999 20.318C9.81722 20.1873 9.49522 20.0333 9.23389 19.856L9.41589 18.456C9.86389 18.7267 10.3819 18.946 10.9699 19.114C11.5579 19.282 12.1132 19.366 12.6359 19.366C13.3639 19.366 13.9379 19.2167 14.3579 18.918C14.7779 18.6193 14.9879 18.2087 14.9879 17.686C14.9879 17.378 14.9179 17.1213 14.7779 16.916C14.6379 16.7013 14.3952 16.5053 14.0499 16.328C13.7139 16.1413 13.2379 15.95 12.6219 15.754C11.8379 15.502 11.2126 15.236 10.7459 14.956C10.2792 14.676 9.94322 14.3493 9.73789 13.976C9.53256 13.5933 9.42989 13.1407 9.42989 12.618C9.42989 12.0113 9.57922 11.484 9.87789 11.036C10.1859 10.588 10.6106 10.2427 11.1519 10C11.6932 9.75733 12.3279 9.636 13.0559 9.636C13.5879 9.636 14.1246 9.706 14.6659 9.846C15.2166 9.986 15.7019 10.1773 16.1219 10.42L15.8839 11.764C15.4826 11.5213 15.0299 11.3347 14.5259 11.204C14.0219 11.064 13.5412 10.994 13.0839 10.994C12.4306 10.994 11.9172 11.1293 11.5439 11.4C11.1799 11.6707 10.9979 12.0487 10.9979 12.534C10.9979 12.814 11.0586 13.0567 11.1799 13.262C11.3012 13.458 11.5159 13.64 11.8239 13.808C12.1319 13.976 12.5612 14.1533 13.1119 14.34C13.9612 14.6107 14.6379 14.9 15.1419 15.208C15.6552 15.5067 16.0239 15.8473 16.2479 16.23C16.4719 16.6033 16.5839 17.0513 16.5839 17.574C16.5839 18.5447 16.2339 19.3147 15.5339 19.884Z" fill="black"/>
</g>
<defs>
<clipPath id="clip0_3247_3566">
<rect width="18" height="18" fill="white" transform="translate(4 6)"/>
</clipPath>
</defs>
</svg>
