<svg xmlns="http://www.w3.org/2000/svg" width="110" height="67" viewBox="0 0 110 67" fill="none">
  <g clip-path="url(#clip0_68_93)">
    <path d="M55 65.45C84.8234 65.45 109 51.1231 109 33.45C109 15.7769 84.8234 1.45 55 1.45C25.1766 1.45 1 15.7769 1 33.45C1 51.1231 25.1766 65.45 55 65.45Z" fill="#F7F1EA" stroke="black" stroke-width="1.5" stroke-miterlimit="10"/>
    <path d="M55 51.45C73.6396 51.45 88.75 43.8388 88.75 34.45C88.75 25.0612 73.6396 17.45 55 17.45C36.3604 17.45 21.25 25.0612 21.25 34.45C21.25 43.8388 36.3604 51.45 55 51.45Z" fill="#E7E0D9" stroke="black" stroke-width="1.5" stroke-miterlimit="10"/>
    <path d="M85.44 22.89C85.44 22.89 85.47 22.92 85.48 22.94C86.33 24.08 86.36 25.61 86.35 27.03C86.35 28.01 86.34 28.98 86.33 29.96C86.32 31.6 86.12 33.33 85.1 34.68C82.45 38.17 75.93 38.71 72.02 39.82C63.38 42.27 54.68 43.67 45.8 45.03C40.93 45.73 35.89 43.97 31.84 41.29C28.22 38.89 28.43 35.41 28.83 31.59C29.23 27.8 31.55 27.23 34.85 26.36C36.94 25.81 38.92 25.67 40.99 25.04C45.55 23.65 50.32 23.14 54.99 22.27C61.18 21.11 67.42 20.1 73.71 19.92C76.01 19.86 78.22 20.45 80.42 21.01C82.16 21.45 84.21 21.31 85.44 22.89Z" fill="#FFF9F2" stroke="black" stroke-width="1.5" stroke-miterlimit="10"/>
    <path d="M67.24 3.32999C73.43 -0.120005 81.83 2.86999 83.05 7.36999C93.38 11.89 88.75 25.28 78.13 21.6L67.24 3.32999Z" fill="#F2895F" stroke="black" stroke-width="1.5" stroke-miterlimit="10"/>
    <path d="M55.71 6.23999C60.6 1.62999 70.67 1.31999 71.84 8.55999C78.2 10.71 79.18 15.64 78.13 21.61C75.04 25.91 70.24 25.81 66.72 24.19L55.71 6.23999Z" fill="#F2895F" stroke="black" stroke-width="1.5" stroke-miterlimit="10"/>
    <path d="M46.63 9.34999C51.17 4.86999 59.87 4.41999 61.28 10.59C67.36 12.76 67.74 19.19 66.71 24.18C63.44 27.28 59.85 28.43 54.83 26.1L46.63 9.33999V9.34999Z" fill="#F2895F" stroke="black" stroke-width="1.5" stroke-miterlimit="10"/>
    <path d="M38.32 13.9C44.02 6.58 51.17 8.96 51.27 13.06C55.41 14.7 57.66 20.93 55.37 25.65C52.66 28.93 48.95 29.61 45.27 27.91L38.32 13.91V13.9Z" fill="#F2895F" stroke="black" stroke-width="1.5" stroke-miterlimit="10"/>
    <path d="M28.99 22.61C33.46 14.68 40.76 11.5 41.66 16.41C47.43 18 47.89 22.57 46.94 26.83C44.28 29.36 39.66 30.65 34.6 30.72L28.99 22.6V22.61Z" fill="#F2895F" stroke="black" stroke-width="1.5" stroke-miterlimit="10"/>
    <path d="M25.15 26.72C18.87 25.64 15.09 29.58 12.44 35.79C19.72 37.55 23.96 35.81 26.04 31.59L25.14 26.72H25.15Z" fill="#F2895F" stroke="black" stroke-width="1.5" stroke-miterlimit="10"/>
    <path d="M30.11 32.65L25.63 31.17C21.84 35.49 21 40.29 23.32 45.58C29.66 43.41 31.96 39.12 30.11 32.65Z" fill="#F2895F" stroke="black" stroke-width="1.5" stroke-miterlimit="10"/>
    <path d="M34.6 30.72C31.17 31.26 29.23 35.1 25.64 31.16C22.63 27.22 26.34 25.96 28.99 22.6C30.13 22.56 31.97 22.49 32.14 25.17C35.15 25.7 35.32 28.82 34.6 30.71V30.72Z" fill="#F2895F" stroke="black" stroke-width="1.5" stroke-miterlimit="10"/>
  </g>
  <defs>
    <clipPath id="clip0_68_93">
      <rect width="109.5" height="65.5" fill="white" transform="translate(0.25 0.699997)"/>
    </clipPath>
  </defs>
</svg>