<svg width="28" height="28" viewBox="0 0 28 28" fill="none" xmlns="http://www.w3.org/2000/svg">
<rect x="2.75" y="0.75" width="24.5" height="24.5" rx="5.25" fill="black" stroke="black" stroke-width="1.5"/>
<rect x="0.75" y="2.75" width="24.5" height="24.5" rx="5.25" fill="#FFF9F2"/>
<rect x="0.75" y="2.75" width="24.5" height="24.5" rx="5.25" stroke="black" stroke-width="1.5"/>
<g clip-path="url(#clip0_100_274)">
<path d="M15.3932 14.704C15.0478 15.3853 14.4598 16.1833 13.6292 17.098C13.3118 17.4433 12.9758 17.798 12.6212 18.162C12.2665 18.5167 11.9352 18.8387 11.6272 19.128H16.2192V20.5H9.70918V19.268C10.1385 18.8573 10.5072 18.498 10.8152 18.19C11.1325 17.8727 11.4125 17.588 11.6552 17.336C11.8978 17.0747 12.1218 16.818 12.3272 16.566C12.8498 15.95 13.2558 15.4273 13.5452 14.998C13.8438 14.5687 14.0538 14.1907 14.1752 13.864C14.3058 13.528 14.3712 13.1967 14.3712 12.87C14.3712 12.3473 14.2172 11.9367 13.9092 11.638C13.6012 11.3393 13.1765 11.19 12.6352 11.19C12.1592 11.19 11.6972 11.302 11.2492 11.526C10.8105 11.7407 10.4278 12.0487 10.1012 12.45L9.80718 11.092C10.1712 10.7093 10.6192 10.4107 11.1512 10.196C11.6832 9.972 12.2478 9.86 12.8452 9.86C13.7878 9.86 14.5345 10.1167 15.0852 10.63C15.6452 11.134 15.9252 11.8153 15.9252 12.674C15.9252 13.3367 15.7478 14.0133 15.3932 14.704Z" fill="black"/>
</g>
<defs>
<clipPath id="clip0_100_274">
<rect width="18" height="18" fill="white" transform="translate(4 6)"/>
</clipPath>
</defs>
</svg>
