<svg xmlns="http://www.w3.org/2000/svg" width="96" height="75" viewBox="0 0 96 75" fill="none">
  <path d="M40.52 29.1267C41.65 28.6367 43.45 27.8667 44.52 27.2967C45.08 27.0467 46.16 26.3967 45.73 25.5467C43.23 22.1767 43.56 16.5567 45.66 14.0267C46.28 13.2867 47.07 12.7867 47.63 12.0267C48.23 11.2167 48.56 10.2067 49.01 9.3167C53.53 0.376699 67.04 -1.5733 74.8 4.1767C76.48 5.4267 78.13 7.2067 78.68 9.2467C79.01 10.4467 79.07 11.6967 79.34 12.9167C79.65 14.3267 80.3 15.2467 81.05 16.4267C82.71 19.0567 82.34 23.8067 80.37 26.1867C83.61 28.6567 86.52 31.1567 89.28 34.1567C92.05 37.1567 93.98 40.2367 94.32 44.4367C96.05 65.4467 69.04 70.6967 54.16 71.1867C44.66 71.5067 30.38 70.5067 21.35 67.3867C12.77 64.4167 2.62999 58.7767 1.36999 48.9067C0.84999 44.8567 1.81999 40.6467 4.04999 37.2267C6.72999 33.1267 7.19999 32.7067 6.84999 27.0767C6.72999 25.2167 5.03999 22.1067 6.31999 20.4167C6.50999 20.1667 6.73999 19.9567 6.88999 19.6867C7.11999 19.2567 7.07999 18.7467 7.03999 18.2667C6.86999 16.2467 7.19999 14.2467 9.71999 15.2467C11.55 15.9767 13.56 16.7067 15.24 17.7467C16.92 18.7867 19.81 20.3967 21.74 21.1467C27.65 23.4467 36.25 20.7767 44.39 23.0667" fill="#FFF9F2"/>
  <path d="M40.9 29.7767C42.15 29.2367 43.4 28.6967 44.62 28.0867C45.4 27.6967 46.34 27.2067 46.54 26.2767C46.77 25.2167 45.68 24.1667 45.33 23.2267C44.87 21.9667 44.68 20.6267 44.72 19.2967C44.76 18.0367 45 16.7267 45.55 15.5867C46.17 14.3267 47.32 13.6367 48.16 12.5567C48.92 11.5767 49.28 10.3667 49.87 9.2867C50.46 8.2067 51.15 7.2867 51.98 6.4367C55.17 3.1767 59.84 1.6367 64.33 1.6567C68.82 1.6767 74.43 3.4867 77.1 7.6167C78.2 9.3167 78.15 11.2067 78.6 13.1067C78.95 14.5967 79.82 15.7367 80.54 17.0567C81.89 19.5667 81.58 23.3967 79.83 25.6467C79.51 26.0667 79.56 26.5067 79.98 26.8267C83.49 29.5167 86.93 32.4367 89.77 35.8467C92.32 38.9067 93.65 42.3767 93.64 46.3667C93.63 51.8167 91.25 56.6967 87.19 60.2867C83.13 63.8767 77.94 66.0767 72.79 67.5767C67.65 69.0767 62.32 69.9167 56.99 70.2867C50 70.7667 42.92 70.4467 35.97 69.6467C28.63 68.7967 21.38 67.2067 14.77 63.7867C8.59001 60.5867 2.6 55.4667 2.02 48.0667C1.67 43.5767 3.26 39.8367 5.63 36.1567C7.10001 33.8667 7.74 31.7867 7.68 29.0467C7.64 27.2567 7.34 25.7067 6.9 23.9867C6.71 23.2167 6.47001 22.3567 6.63 21.5667C6.8 20.7167 7.58 20.2367 7.75 19.3667C7.95 18.3567 7.12 15.3767 8.99 15.7967C11.03 16.2467 13.21 17.3967 14.99 18.4767C18.05 20.3267 21.24 22.1867 24.84 22.6767C28.95 23.2267 33.12 22.7067 37.24 22.8367C39.59 22.9067 41.91 23.1767 44.19 23.7967C45.12 24.0467 45.52 22.6067 44.59 22.3467C39.98 21.0967 35.26 21.3167 30.54 21.3967C28.35 21.4367 26.12 21.4567 23.96 21.0167C21.99 20.6067 20.19 19.6867 18.43 18.7367C16.58 17.7367 14.84 16.5767 12.91 15.7367C11.49 15.1267 9.3 13.7467 7.7 14.3967C6.43 14.9167 6.22 16.4567 6.24 17.6667C6.24 18.0667 6.34 18.4967 6.29 18.8967C6.21 19.4367 5.86 19.7267 5.58 20.1667C5.17 20.8267 5.04 21.6167 5.09 22.3867C5.19 24.1467 5.99001 25.7667 6.11 27.5267C6.22001 29.1367 6.33 30.8667 5.88 32.4367C5.49001 33.7767 4.64001 34.9467 3.89 36.1067C2.68 37.9667 1.68 39.8867 1.1 42.0367C-0.969995 49.7667 2.44 56.9367 8.55 61.6567C14.66 66.3767 21.72 68.7567 28.93 70.1167C37.04 71.6467 45.42 72.1967 53.66 71.9667C59.14 71.8167 64.63 71.1467 69.96 69.8867C75.62 68.5567 81.34 66.5267 86.09 63.0867C90.55 59.8667 93.95 55.3167 94.85 49.7967C95.39 46.4467 95.24 42.8767 93.92 39.7267C92.28 35.8167 89.09 32.6867 86 29.8967C84.31 28.3667 82.53 26.9367 80.72 25.5567L80.87 26.7367C82.48 24.6667 83.05 21.9167 82.73 19.3267C82.59 18.1667 82.26 17.0667 81.66 16.0567C81.26 15.3867 80.8 14.7567 80.47 14.0467C80.04 13.1167 79.9 12.1167 79.75 11.1167C79.25 7.7567 77.67 5.3367 74.9 3.3667C72.99 2.0067 70.74 1.0967 68.44 0.616704C63.8 -0.353296 58.75 0.286704 54.59 2.5967C52.57 3.7167 50.79 5.2567 49.43 7.1367C48.71 8.1367 48.22 9.2167 47.7 10.3267C46.97 11.8867 45.58 12.6967 44.65 14.0867C43.1 16.4067 42.88 19.6167 43.46 22.2867C43.6 22.9167 43.79 23.5367 44.05 24.1367C44.18 24.4567 44.33 24.7667 44.49 25.0667C44.81 25.6467 45.05 25.9067 44.53 26.4267C44.07 26.8967 43.07 27.1667 42.48 27.4367C41.69 27.7967 40.89 28.1367 40.1 28.4867C39.22 28.8667 39.98 30.1567 40.86 29.7867L40.9 29.7767Z" fill="black"/>
  <path d="M61.01 19.7867C61.855 19.7867 62.54 19.1017 62.54 18.2567C62.54 17.4117 61.855 16.7267 61.01 16.7267C60.165 16.7267 59.48 17.4117 59.48 18.2567C59.48 19.1017 60.165 19.7867 61.01 19.7867Z" fill="black"/>
  <path d="M61.8 18.2567C61.8 18.2567 61.8 18.3467 61.8 18.3867C61.8 18.5067 61.8 18.3267 61.81 18.3167C61.78 18.3767 61.78 18.4567 61.76 18.5167C61.75 18.5567 61.73 18.5967 61.72 18.6367C61.72 18.6267 61.8 18.4667 61.75 18.5667C61.71 18.6367 61.67 18.7067 61.63 18.7767C61.55 18.8967 61.73 18.6767 61.66 18.7367C61.64 18.7567 61.62 18.7867 61.59 18.8067C61.57 18.8267 61.55 18.8467 61.53 18.8667C61.48 18.9167 61.39 18.9467 61.56 18.8467C61.5 18.8767 61.45 18.9267 61.39 18.9567C61.37 18.9667 61.34 18.9767 61.32 18.9967C61.2 19.0667 61.5 18.9467 61.33 18.9967C61.26 19.0167 61.2 19.0367 61.13 19.0567C61.05 19.0767 61.02 19.0367 61.19 19.0567C61.16 19.0567 61.12 19.0567 61.08 19.0567C61.01 19.0567 60.94 19.0567 60.87 19.0567C60.77 19.0567 61.07 19.0967 60.92 19.0567C60.88 19.0567 60.84 19.0367 60.8 19.0267C60.76 19.0167 60.72 18.9967 60.68 18.9867C60.61 18.9667 60.64 18.9367 60.75 19.0167C60.7 18.9767 60.63 18.9567 60.57 18.9167C60.54 18.8967 60.52 18.8767 60.49 18.8567C60.41 18.8067 60.63 18.9867 60.53 18.8867C60.48 18.8367 60.42 18.7567 60.36 18.7167C60.46 18.7967 60.44 18.8367 60.4 18.7767C60.38 18.7467 60.36 18.7067 60.33 18.6767C60.32 18.6567 60.3 18.6267 60.29 18.6067C60.25 18.5367 60.26 18.4567 60.29 18.6367C60.28 18.5667 60.24 18.5067 60.23 18.4467C60.23 18.4167 60.22 18.3967 60.21 18.3667C60.18 18.2267 60.23 18.5667 60.21 18.3767C60.21 18.3167 60.21 18.2467 60.21 18.1867C60.21 18.1167 60.26 18.0167 60.21 18.2167C60.21 18.1867 60.21 18.1667 60.23 18.1367C60.24 18.0667 60.27 18.0067 60.29 17.9367C60.34 17.7967 60.2 18.0967 60.28 17.9667C60.3 17.9367 60.32 17.8967 60.34 17.8567C60.36 17.8267 60.38 17.7967 60.39 17.7767C60.44 17.7067 60.47 17.7267 60.36 17.8167C60.41 17.7767 60.45 17.7167 60.5 17.6767C60.52 17.6567 60.62 17.5867 60.52 17.6567C60.42 17.7267 60.52 17.6567 60.54 17.6467C60.6 17.6067 60.7 17.5767 60.75 17.5267C60.75 17.5267 60.57 17.5967 60.68 17.5567C60.72 17.5467 60.76 17.5267 60.8 17.5167C60.84 17.5067 61.04 17.4767 60.9 17.4867C60.76 17.4967 60.99 17.4867 61.03 17.4867C61.07 17.4867 61.1 17.4867 61.14 17.4867C61.29 17.4867 60.97 17.4467 61.11 17.4867C61.19 17.5067 61.27 17.5267 61.35 17.5567C61.49 17.5967 61.22 17.4867 61.3 17.5367C61.34 17.5667 61.38 17.5767 61.42 17.6067C61.44 17.6167 61.47 17.6367 61.49 17.6467C61.41 17.5667 61.65 17.7567 61.49 17.6467C61.54 17.6967 61.58 17.7367 61.63 17.7867C61.73 17.8967 61.53 17.6367 61.61 17.7567C61.63 17.7867 61.65 17.8267 61.68 17.8567C61.71 17.8867 61.72 17.9267 61.74 17.9667C61.81 18.0867 61.68 17.7967 61.73 17.9367C61.76 18.0167 61.78 18.0967 61.8 18.1767C61.82 18.2467 61.78 18.2567 61.8 18.0967C61.8 18.1467 61.8 18.2067 61.8 18.2667C61.8 18.6567 62.14 19.0367 62.55 19.0167C62.96 18.9967 63.31 18.6867 63.3 18.2667C63.29 17.2867 62.68 16.4567 61.77 16.1167C60.93 15.7967 59.87 16.0767 59.3 16.7767C58.68 17.5267 58.55 18.5867 59.06 19.4367C59.57 20.2867 60.54 20.6767 61.5 20.5067C62.55 20.3167 63.3 19.3167 63.31 18.2767C63.31 17.8867 62.96 17.5067 62.56 17.5267C62.16 17.5467 61.82 17.8567 61.81 18.2767L61.8 18.2567Z" fill="black"/>
  <path d="M80.85 21.3767C81.65 22.6267 82.65 23.7067 83.63 24.8067C84.16 25.3967 84.55 26.1367 84.64 26.9267C84.73 27.7167 84.49 28.5667 83.91 29.0967C82.25 30.6367 79.61 29.4467 77.7 29.1767C76.36 28.9867 75.02 28.7967 73.67 28.6467C72.46 28.5167 71.22 28.4067 70.12 27.8767C67.94 26.8367 67.66 24.2667 69.1 22.4967C69.61 21.8667 70.24 21.3467 70.87 20.8367C71.58 20.2567 71.98 19.6767 72.51 18.9267C72.9 18.3867 73.29 17.8367 73.82 17.4167C74.97 16.5067 76.61 16.0667 77.86 17.0067C78.86 17.7567 79.45 19.0267 80.06 20.0567C80.32 20.4967 80.58 20.9467 80.86 21.3767H80.85Z" fill="#F2895F"/>
  <path d="M80.21 21.7567C81.06 23.0467 82.12 24.1467 83.1 25.3367C83.96 26.3667 84.41 28.1667 82.91 28.8867C81.82 29.4167 80.45 29.0067 79.34 28.7467C77.95 28.4267 76.53 28.2467 75.12 28.0667C73.03 27.7967 68.86 27.8767 68.96 24.8167C69 23.5067 69.94 22.5967 70.88 21.7967C71.41 21.3467 71.93 20.9267 72.36 20.3767C72.79 19.8267 73.18 19.2067 73.64 18.6567C74.62 17.4767 76.38 16.6367 77.68 17.8467C78.79 18.8767 79.4 20.4967 80.21 21.7667C80.73 22.5767 82.03 21.8267 81.51 21.0067C80.59 19.5567 79.89 17.7767 78.57 16.6267C77.25 15.4767 75.66 15.5367 74.22 16.2667C72.61 17.0867 71.97 18.7467 70.73 19.9567C69.49 21.1667 68.07 22.0367 67.61 23.7867C67.26 25.1067 67.55 26.5367 68.46 27.5567C69.57 28.8067 71.32 29.1167 72.9 29.3067C74.81 29.5367 76.75 29.6967 78.62 30.1167C80.09 30.4567 81.73 30.9167 83.21 30.3767C85 29.7267 85.8 27.7967 85.21 26.0267C84.91 25.1267 84.32 24.4467 83.71 23.7567C82.93 22.8767 82.16 21.9867 81.51 20.9967C80.98 20.1967 79.68 20.9467 80.21 21.7567Z" fill="black"/>
</svg>