<svg width="20" height="20" viewBox="0 0 20 20" fill="none" xmlns="http://www.w3.org/2000/svg">
<path d="M-0.000488281 8.68555V16.857C-0.000488281 17.6147 0.300531 18.3415 0.83635 18.8773C1.37217 19.4131 2.09889 19.7141 2.85665 19.7141H17.1424C17.9001 19.7141 18.6269 19.4131 19.1627 18.8773C19.6985 18.3415 19.9995 17.6147 19.9995 16.857V8.68555L11.4967 13.917C11.0464 14.194 10.5281 14.3406 9.99951 14.3406C9.47088 14.3406 8.95261 14.194 8.50237 13.917L-0.000488281 8.68555Z" fill="#6C5F59"/>
<path d="M19.9995 7.00762V6.85714C19.9995 6.09938 19.6985 5.37266 19.1627 4.83684C18.6269 4.30102 17.9001 4 17.1424 4H2.85665C2.09889 4 1.37217 4.30102 0.83635 4.83684C0.300531 5.37266 -0.000488281 6.09938 -0.000488281 6.85714V7.00762L9.25094 12.701C9.47606 12.8395 9.7352 12.9128 9.99951 12.9128C10.2638 12.9128 10.523 12.8395 10.7481 12.701L19.9995 7.00762Z" fill="#6C5F59"/>
</svg>
