<svg xmlns="http://www.w3.org/2000/svg" width="111" height="68" viewBox="0 0 111 68" fill="none">
  <g clip-path="url(#clip0_32_216)">
    <path d="M55.66 66.45C85.4834 66.45 109.66 52.1231 109.66 34.45C109.66 16.7769 85.4834 2.45 55.66 2.45C25.8367 2.45 1.66003 16.7769 1.66003 34.45C1.66003 52.1231 25.8367 66.45 55.66 66.45Z" fill="#F7F1EA" stroke="black" stroke-width="1.5" stroke-miterlimit="10"/>
    <path d="M55.66 52.45C74.2996 52.45 89.41 44.8388 89.41 35.45C89.41 26.0612 74.2996 18.45 55.66 18.45C37.0204 18.45 21.91 26.0612 21.91 35.45C21.91 44.8388 37.0204 52.45 55.66 52.45Z" fill="#E7E0D9" stroke="black" stroke-width="1.5" stroke-miterlimit="10"/>
    <path d="M85.3601 23.28C85.7601 23.99 86.0501 24.74 86.1201 25.45C86.1901 26.2 86.0701 26.96 85.9401 27.71C85.8001 28.55 85.6601 29.39 85.5201 30.22C85.3301 31.37 85.1301 32.54 84.6101 33.58C83.7901 35.23 81.8901 36.23 80.1801 36.72C78.9901 37.06 77.8901 37.59 76.6801 37.8C75.3101 38.04 73.9701 38.6 72.6301 38.99C69.7401 39.85 66.8201 40.63 63.9101 41.41C60.6501 42.28 57.5101 43.67 54.2401 44.48C50.7101 45.35 46.9101 45.66 43.2901 46.03C41.7401 46.19 40.1401 46.32 38.6401 45.88C36.2401 45.17 33.6801 43.5 31.5801 42.15C29.2601 40.65 25.9501 38.02 25.8001 35.04C25.7101 33.3 25.6301 31.56 25.5401 29.82C25.5201 29.39 25.5001 28.95 25.6301 28.55C25.8501 27.89 26.4401 27.43 27.0001 27.01C28.1401 26.16 29.2601 25.32 30.5101 24.64C31.3101 24.2 31.6201 23.34 32.3201 22.89C32.5001 22.77 32.8501 22.75 33.0601 22.69C34.7301 22.22 36.4201 21.79 38.0901 21.35L55.8901 16.6C61.1501 15.2 66.4001 13.8 71.6601 12.39C72.4901 12.17 73.3201 11.95 74.1501 11.73C74.3201 11.68 75.4101 12.97 75.5301 13.09L78.7501 16.26C80.2301 17.72 81.8801 19.01 83.2901 20.54C83.9701 21.28 84.7701 22.25 85.3501 23.29L85.3601 23.28Z" fill="#FFF9F2" stroke="black" stroke-width="1.5" stroke-miterlimit="10"/>
    <path d="M90.1901 12.97C90.3101 12.74 90.4101 12.5 90.4601 12.24C90.5101 11.96 90.4901 11.68 90.4601 11.39C90.3601 10.14 90.2201 9.10999 89.5301 8.02999C89.0601 7.30999 88.4801 6.67999 87.8801 6.07999C85.9601 4.15999 83.2701 2.06999 80.6701 1.30999C76.8101 0.179991 72.4101 1.77999 68.7401 2.97999C64.0601 4.50999 59.4701 6.37999 54.7901 7.85999C53.5301 8.25999 52.2801 8.69999 51.0501 9.16999C49.9201 9.60999 48.4701 10.01 47.4901 10.72C46.5101 11.43 45.7201 12.25 44.6801 12.88C43.8201 13.4 42.9101 13.91 41.9801 14.3C40.3101 14.99 38.5001 15.34 36.6901 15.32C35.2501 15.31 33.3801 15.25 32.3501 14.11C31.8201 13.52 31.4501 12.8 30.9401 12.19C30.7901 12.01 30.6201 11.83 30.4001 11.75C29.9901 11.61 29.5701 11.86 29.2101 12.1C28.5401 12.54 27.8501 13 27.3701 13.65C26.4801 14.84 26.6301 16.26 26.6501 17.65C26.6601 18.59 26.6701 19.54 26.6901 20.48L32.8901 25.06L51.4001 27.85L71.2901 23.6L79.6601 19.45L85.0501 18.64C85.7401 18.03 86.4401 17.42 87.1301 16.81C87.6901 16.31 88.3301 15.85 88.8501 15.3C89.3701 14.75 89.7201 13.89 90.0901 13.21C90.1301 13.13 90.18 13.05 90.2201 12.97H90.1901Z" fill="#F9E5E5" stroke="black" stroke-width="1.5" stroke-miterlimit="10"/>
    <path d="M86.5 21.85L77.26 23.29C76.73 22.6 75.68 22.57 74.9 22.68C74.49 22.74 73.89 22.82 73.57 23.09C73.38 23.25 73.33 23.41 73.22 23.64C73.16 23.76 73.11 23.88 73.08 24.01C73.02 24.31 72.96 24.77 72.58 24.45C72.52 24.4 72.46 24.35 72.39 24.32C72.34 24.31 72.3 24.3 72.25 24.3C71.88 24.28 71.64 24.33 71.27 24.44C70.5 24.66 69.46 24.75 69.33 25.72C69.29 26.07 69.33 26.42 69.24 26.76C69.24 26.79 69.22 26.83 69.19 26.85C69.17 26.86 69.14 26.86 69.12 26.86C68.51 26.86 68.06 26.37 67.54 26.13C66.94 25.84 66.21 25.92 65.59 26.1L60.43 27.61L55.4 29.08L51.54 30.21C50.99 30.37 50.45 30.53 49.9 30.69C49.13 29.86 48.09 29.29 46.94 29.31C45.93 29.33 45.12 29.98 44.75 30.9C44.68 31.07 44.62 31.25 44.51 31.41C44.4 31.57 44.22 31.68 44.03 31.65C43.85 31.63 43.71 31.48 43.63 31.33C43.3 30.76 43.07 30.44 42.37 30.26C41.61 30.07 40.85 29.89 40.09 29.71C39.04 29.46 37.97 28.93 37.57 30.29C37.4 30.88 36.68 30.55 36.28 30.44C35.72 30.28 35.54 29.84 35.43 29.29C35.34 28.82 35 28.32 34.63 28C34.3 27.73 33.92 27.75 33.51 27.75C33.22 27.75 32.92 27.76 32.64 27.85C32.32 27.96 32.21 28.14 32.01 28.38C31.86 28.56 31.61 28.69 31.53 28.93C31.45 29.2 31.35 29.46 31.23 29.71C31.16 29.86 31.08 30.01 30.97 30.14C29.81 31.44 28.42 28.81 27.85 28.07L24.98 24.35C24.46 23.68 23.95 23.01 23.43 22.33C23.87 20.94 24.01 19.74 23.49 18.94C22.83 16.76 23.69 13.18 25.28 11.89C26.23 11.21 27.37 10.78 28.55 10.87C29.14 10.91 30.61 11.12 30.58 11.9C30.54 12.81 29.98 13.47 29.71 14.3C29.46 15.09 29.49 16.19 29.62 17C29.83 18.38 30.64 19.64 31.77 20.47C32.52 21.02 33.4 21.38 34.31 21.56C35.22 21.74 36 21.71 36.83 22.05C37.89 22.49 38.71 23.35 39.59 24.09C40.62 24.95 41.83 25.44 43.18 25.36C44.53 25.28 45.83 24.57 47.2 24.35C49.64 23.95 52.08 25.26 54.5 24.55C55.54 24.25 56.36 23.51 57.15 22.8C57.53 22.46 57.9 22.02 58.32 21.74C58.65 21.51 59.02 21.35 59.39 21.18C60.49 20.69 61.93 20.74 63.12 20.84C64.33 20.94 65.47 21.34 66.66 21.47C68.69 21.68 71.21 21.45 72.99 20.37C73.68 19.95 74.26 19.36 74.79 18.76C75.44 18.03 76.06 17.61 77.04 17.44C77.93 17.29 78.85 17.34 79.74 17.44C80.74 17.55 81.87 17.62 82.85 17.34C83.39 17.19 84.13 16.99 84.51 16.57C84.99 16.05 85.34 15.26 85.73 14.66C86.04 14.17 86.36 13.68 86.76 13.25C87.37 12.59 88.14 12.11 88.8 11.49C89.12 11.19 89.41 10.85 89.62 10.46C89.75 10.22 89.83 9.80999 90.09 9.67999C90.55 9.44999 90.59 10.61 90.6 10.89C90.63 11.48 90.6 12.07 90.53 12.65C90.39 13.66 90.16 14.92 89.69 15.83C89.28 16.62 88.59 17.32 88.14 18.11C87.46 19.3 86.94 20.59 86.49 21.88L86.5 21.85Z" fill="#E07C7C" stroke="black" stroke-width="1.5" stroke-miterlimit="10"/>
    <path d="M30.7059 30.6359C31.8202 29.5321 31.0284 26.926 28.9373 24.8151C26.8462 22.7042 24.2477 21.8878 23.1334 22.9917C22.0191 24.0955 22.811 26.7016 24.902 28.8125C26.9931 30.9234 29.5916 31.7398 30.7059 30.6359Z" fill="#F9E5E5" stroke="black" stroke-width="1.5" stroke-miterlimit="10"/>
    <path d="M44.3719 31.819C44.6163 30.5894 42.9393 29.2199 40.6263 28.7603C38.3132 28.3006 36.2401 28.9248 35.9957 30.1544C35.7513 31.3841 37.4283 32.7535 39.7413 33.2132C42.0543 33.6728 44.1275 33.0487 44.3719 31.819Z" fill="#F9E5E5" stroke="black" stroke-width="1.5" stroke-miterlimit="10"/>
    <path d="M53.9522 32.3988C56.0058 31.9936 57.4487 30.5407 57.1751 29.1536C56.9014 27.7665 55.0148 26.9704 52.9613 27.3756C50.9077 27.7807 49.4648 29.2336 49.7384 30.6207C50.0121 32.0078 51.8986 32.8039 53.9522 32.3988Z" fill="#F9E5E5" stroke="black" stroke-width="1.5" stroke-miterlimit="10"/>
    <path d="M71.2779 26.879C72.5273 26.4706 73.3287 25.4927 73.0679 24.6948C72.8071 23.8969 71.5829 23.5811 70.3335 23.9894C69.0841 24.3978 68.2827 25.3757 68.5435 26.1736C68.8043 26.9716 70.0285 27.2874 71.2779 26.879Z" fill="#F9E5E5" stroke="black" stroke-width="1.5" stroke-miterlimit="10"/>
    <path d="M82.245 25.3633C84.6709 25.0461 86.4936 23.688 86.316 22.3299C86.1384 20.9718 84.0278 20.128 81.6018 20.4452C79.1759 20.7624 77.3532 22.1206 77.5308 23.4787C77.7084 24.8368 79.819 25.6806 82.245 25.3633Z" fill="#F9E5E5" stroke="black" stroke-width="1.5" stroke-miterlimit="10"/>
    <path d="M53.9001 6.87C56.2201 6.42 57.1501 6.73 59.0501 7.92C67.3801 13.53 68.8601 16.99 69.1901 22.82L69.9101 37.04C69.8901 40.06 69.7201 41.32 67.3801 41.99C63.1501 43.58 58.9801 45.77 57.6901 44.09C59.2701 43.54 58.8301 42.02 58.9901 39.76C59.4501 33.55 58.9501 29.03 58.4101 24.43C57.9001 20.43 57.9701 19.09 54.9701 16.06C51.1801 13.3 49.0501 10.4 45.7601 11.46C48.0201 9.26 50.5501 7.45 53.9101 6.86L53.9001 6.87Z" fill="#53453F" stroke="black" stroke-width="1.5" stroke-miterlimit="10"/>
  </g>
  <defs>
    <clipPath id="clip0_32_216">
      <rect width="109.5" height="67.02" fill="white" transform="translate(0.910034 0.179993)"/>
    </clipPath>
  </defs>
</svg>