<svg xmlns="http://www.w3.org/2000/svg" width="111" height="69" viewBox="0 0 111 69" fill="none">
  <g clip-path="url(#clip0_32_232)">
    <path d="M55.5 67.45C85.3234 67.45 109.5 53.1231 109.5 35.45C109.5 17.7769 85.3234 3.45 55.5 3.45C25.6766 3.45 1.5 17.7769 1.5 35.45C1.5 53.1231 25.6766 67.45 55.5 67.45Z" fill="#F7F1EA" stroke="black" stroke-width="1.5" stroke-miterlimit="10"/>
    <path d="M55.5 53.45C74.1396 53.45 89.25 45.8388 89.25 36.45C89.25 27.0612 74.1396 19.45 55.5 19.45C36.8604 19.45 21.75 27.0612 21.75 36.45C21.75 45.8388 36.8604 53.45 55.5 53.45Z" fill="#E7E0D9" stroke="black" stroke-width="1.5" stroke-miterlimit="10"/>
    <path d="M84.54 21.78C85.13 21.86 85.66 22.08 86.2 22.69C86.93 23.51 87.25 24.69 87.25 25.77C87.26 27.45 86.71 29.08 86.63 30.76C86.59 31.61 86.67 32.48 86.43 33.29C85.47 36.52 81.46 37.77 78.63 38.64C77.37 39.03 76.1 39.41 74.84 39.8C72.07 40.65 69.45 41.91 66.8 43.07C65.03 43.84 63.17 44.36 61.32 44.9C59.47 45.44 57.69 46.09 55.77 46.49C52.53 47.16 49.34 47.9 46.04 48.28C44.11 48.5 42.32 48.07 40.6 47.22C38.88 46.37 37.14 45.77 35.44 44.83C33.97 44.01 32.67 43.1 31.47 41.94C30.4 40.9 29.26 40.09 28.55 38.72C27.92 37.49 27.91 36.27 27.76 34.95C27.61 33.63 27.28 32.27 27.69 31.01C27.94 30.23 28.51 29.6 29.09 29.02C30.31 27.8 32.36 27.95 33.95 27.91C35.59 27.88 37.24 27.7 38.83 27.29C42.07 26.45 45.31 25.61 48.55 24.77C52.65 23.7 56.75 22.64 60.86 21.57C64.09 21.81 67.31 22.05 70.54 22.29C72.85 22.46 75.19 22.83 77.48 22.47C79.28 22.19 81.08 21.82 82.91 21.79C83.52 21.78 84.05 21.74 84.54 21.8V21.78Z" fill="#FFF9F2" stroke="black" stroke-width="1.5" stroke-miterlimit="10"/>
    <path d="M47.77 6.8C46.81 7.16 45.85 7.52 44.89 7.89C44.13 8.18 43.36 8.47 42.57 8.69C41.78 8.91 40.97 9.06999 40.2 9.34C39.09 9.73 38.08 10.34 37.02 10.83C35.96 11.32 35.45 11.33 34.32 11.61C32.61 12.03 30.71 12.58 29.85 14.11C29.55 14.64 29.41 15.26 29.11 15.79C28.59 16.72 27.61 17.39 27.3 18.42C27.19 18.77 27.17 19.15 27.16 19.51C27.09 21.07 26.9 22.65 27 24.21C27.13 26.25 27.7 27.93 28.94 29.56C29.82 30.72 31.1 31.52 32.34 32.29C32.95 32.67 33.56 33.05 34.17 33.43C35.24 34.09 36.25 34.8 37.31 35.48C37.78 35.78 38.24 36.08 38.73 36.34C41.03 37.56 43.16 37.48 45.64 37.21C47.15 37.05 48.66 36.88 50.11 36.44C50.81 36.23 51.48 35.95 52.16 35.68C53.44 35.16 54.73 34.63 56.01 34.11C58.58 33.06 61.28 32.72 63.98 32.16C66.68 31.6 69.38 30.91 71.71 29.39C73.35 28.32 74.8 26.85 76.68 26.29C77.78 25.96 78.95 25.97 80.07 25.7C81.79 25.29 83.03 23.5 84.71 22.95C86.54 22.36 88.01 20.78 88.47 18.91C88.65 18.2 88.68 17.46 88.7 16.72C88.74 14.94 88.69 13.15 88.53 11.38C88.39 9.83 88.33 8.37 87.26 7.14C86.69 6.48 85.95 6 85.22 5.54C84.56 5.12 83.89 4.71 83.14 4.49C82.29 4.24 81.39 4.24 80.53 4.03C78.85 3.62 77.84 2.14 76.22 1.63C74.28 1.03 72.2 0.849996 70.18 1.11C68.49 1.33 66.85 1.85 65.17 2.15C64.42 2.28 63.65 2.29 62.93 2.48C62.1 2.7 61.29 2.99 60.47 3.22C58.38 3.81 55.9 3.85 53.94 4.72C52.91 5.18 51.83 5.51 50.72 5.73C49.7 5.93 48.77 6.44 47.8 6.81L47.77 6.8Z" fill="#FFDD99" stroke="black" stroke-width="1.5" stroke-miterlimit="10"/>
    <path d="M71.82 2.4C65.3 4.43 58.79 6.47 52.27 8.5C48.64 9.63 45 10.77 41.37 11.9C38.95 12.66 34.06 13.71 35.51 17.15C36.03 18.39 37.19 19.43 38.21 20.26C39.38 21.22 40.74 21.88 42.24 22.13C45.61 22.68 49.09 21.39 52.27 20.42C56.28 19.21 60.25 17.84 64.2 16.42C66.38 15.64 68.56 14.84 70.74 14.03C72.68 13.31 74.92 12.77 76.64 11.59C77.56 10.96 78.39 9.98 78.12 8.79C77.84 7.51 76.52 6.68 75.45 6.07C73.56 4.98 71.69 5.47 69.69 6.02C66.41 6.93 63.18 8.04 59.94 9.09L48.43 12.81C46.92 13.3 45.05 13.77 44.31 15.32C43.86 16.27 44.04 17.44 44.85 18.12C45.83 18.95 47.24 18.88 48.43 18.67C50.22 18.35 51.94 17.58 53.54 16.75C54.4 16.31 53.64 15.01 52.78 15.45C51.27 16.23 49.65 16.96 47.96 17.23C46.99 17.38 44.7 17.13 45.85 15.67C46.58 14.74 48.15 14.47 49.27 14.11L59.65 10.75C62.3 9.89 64.95 9 67.61 8.18C68.74 7.83 69.89 7.5 71.05 7.21C71.86 7 72.76 6.74 73.61 6.9C74.33 7.03 75.02 7.51 75.61 7.93C76.31 8.43 77.06 9.1 76.35 9.91C75.72 10.62 74.68 10.96 73.82 11.29C66.65 14.04 59.41 16.68 52.07 18.91C49.12 19.81 45.78 21.13 42.65 20.67C41.16 20.45 39.83 19.74 38.74 18.71C38.07 18.07 36.63 16.99 36.77 15.9C36.99 14.25 41.43 13.43 42.95 12.95L53.14 9.77C59.38 7.82 65.66 5.96 71.87 3.92C71.99 3.88 72.1 3.85 72.22 3.81C73.14 3.52 72.75 2.07 71.82 2.36V2.4Z" fill="black"/>
    <path d="M50.74 4.67999C56.55 2.06999 56.86 3.44999 59.61 5.71999C61.14 6.99999 63.62 8.26999 64.99 9.53999C68.99 13.33 69.46 12.2 70.61 17.73C71.67 24.42 72.27 32.87 71.67 40.99C71.55 44.44 70.61 44.8 68.23 45.4C62.7 46.55 59.8 49.05 59.19 46.68C60.49 46.39 60.79 46.02 60.64 42.9C60.47 34.72 61.18 29.48 59.71 23.15C58.93 18.86 59.31 18.07 56.74 15.93C55.58 14.91 53.12 12.6 51.12 11.32C47.12 8.31999 46.8 7.17999 43.65 8.11999C43.41 6.15999 48.3 6.05999 50.74 4.67999Z" fill="#53453F" stroke="black" stroke-width="1.5" stroke-miterlimit="10"/>
  </g>
  <defs>
    <clipPath id="clip0_32_232">
      <rect width="109.5" height="67.97" fill="white" transform="translate(0.75 0.229996)"/>
    </clipPath>
  </defs>
</svg>