<svg width="31" height="24" viewBox="0 0 31 24" fill="none" xmlns="http://www.w3.org/2000/svg">
<g clip-path="url(#clip0_3106_3223)">
<path d="M14.4613 7.76003C13.7789 7.37481 12.3791 7.10617 10.1772 7.36974C6.79478 7.56742 5.96785 6.38136 3.54683 5.2105C3.32266 5.1142 3.09351 5.04831 2.8544 5.01789C2.59536 4.98241 2.44093 5.07872 2.35625 5.23078C2.27156 5.38284 2.24167 5.56531 2.22673 5.74271C2.21178 5.99614 2.30145 6.25971 2.21178 6.46246C2.152 6.59424 2.09223 6.65507 2.0175 6.73616C1.73854 7.02508 1.81824 7.42043 1.90791 7.7651C2.19186 8.8143 2.42101 9.87365 2.05237 10.9381C1.82821 11.5767 1.41474 12.0886 1.09592 12.6715C-0.428423 15.4339 0.537992 18.5562 3.09849 20.386C7.59681 24.3446 23.5377 25.1556 28.6886 19.9602C31.7273 16.9799 31.1893 12.2154 27.234 9.6709C26.3771 9.19445 26.412 8.5558 26.5963 7.47112C26.6611 7.09097 26.7507 5.93532 26.2924 5.38284C25.7196 4.6935 25.6797 3.99403 25.6249 3.42634C25.0022 0.354749 19.8015 -0.795832 16.8425 1.86013C16.2746 2.37207 15.9907 2.88907 15.7516 3.51758C15.4776 4.23732 14.8997 4.435 14.5809 4.97228C14.277 5.48421 14.1824 6.15327 14.2621 6.72603C14.3019 7.03014 14.4813 7.7651 14.4813 7.7651L14.4613 7.76003Z" fill="#FFF9F2"/>
<path d="M14.6507 7.43058C13.1313 6.6196 11.3629 6.96933 9.72894 7.00481C8.81732 7.02509 7.91566 6.93385 7.05386 6.6196C6.34649 6.3611 5.70387 5.96068 5.05129 5.5856C4.39871 5.21052 3.63156 4.67831 2.84448 4.63269C2.52566 4.61242 2.24669 4.71379 2.06238 4.98243C1.77843 5.39299 1.9478 5.8593 1.80334 6.29521C1.65887 6.73111 1.41478 6.91865 1.44965 7.41031C1.4895 7.94251 1.71367 8.46458 1.79836 8.99679C1.90297 9.66585 1.88304 10.345 1.624 10.9786C1.41478 11.4855 1.08102 11.9214 0.812016 12.3928C-0.0497872 13.9083 -0.263993 15.733 0.323827 17.3905C0.911646 19.0479 2.01754 20.1022 3.32768 21.0601C5.35018 22.5402 8.01031 23.1586 10.4264 23.5489C13.48 24.0405 16.6134 24.1317 19.687 23.782C22.387 23.4728 25.2264 22.8595 27.5429 21.3491C30.0386 19.722 31.5679 16.8177 30.7759 13.7917C30.3574 12.185 29.3412 10.8012 28.051 9.8027C27.7322 9.55434 27.224 9.34653 26.9899 9.00693C26.7458 8.65212 26.8454 8.15033 26.9002 7.75497C27.0049 7.04029 27.0796 6.28507 26.8106 5.59573C26.6362 5.13956 26.2676 4.81516 26.1231 4.34378C25.9936 3.92815 26.0135 3.48718 25.894 3.07155C25.7196 2.48359 25.3859 1.94631 24.9525 1.52055C23.9661 0.527094 22.5215 0.0658484 21.1416 0.00502476C19.6023 -0.0608675 18.0282 0.405447 16.8176 1.38369C16.0654 1.98686 15.7765 2.68633 15.3381 3.50745C15.1239 3.91295 14.7354 4.15624 14.4514 4.50091C14.1376 4.87599 13.9632 5.3423 13.8885 5.82382C13.7839 6.51822 13.9433 7.18729 14.1027 7.86141C14.2173 8.33787 14.9346 8.13512 14.825 7.65867C14.6407 6.89837 14.4365 6.08739 14.7951 5.33723C14.9695 4.97229 15.2784 4.7442 15.5523 4.46543C15.8263 4.18665 15.9907 3.86226 16.1501 3.49732C16.8226 1.94124 18.3719 1.05423 19.9809 0.821075C21.316 0.628467 22.7805 0.861625 23.9163 1.62699C24.4294 1.97166 24.8777 2.45318 25.1169 3.04114C25.3859 3.7102 25.3111 4.44515 25.6549 5.10407C25.874 5.52477 26.1729 5.80355 26.2427 6.29521C26.2925 6.6348 26.2825 6.98454 26.2427 7.32414C26.168 7.95265 25.9886 8.62678 26.2825 9.22995C26.5964 9.87366 27.3436 10.1626 27.8667 10.5985C28.4943 11.1256 29.0373 11.7541 29.4508 12.4739C31 15.1704 30.1681 18.3738 27.8019 20.2492C25.9039 21.7546 23.4182 22.4338 21.0818 22.824C18.2922 23.2954 15.4129 23.336 12.5983 23.0623C10.1424 22.824 7.60183 22.3628 5.34022 21.3288C2.87935 20.1985 0.523088 17.9683 0.762201 14.9981C0.836923 14.0654 1.19061 13.2139 1.67382 12.4333C2.15703 11.6528 2.55057 10.9482 2.61034 10.0257C2.64522 9.53913 2.58046 9.04241 2.49079 8.56595C2.44595 8.33787 2.39116 8.11485 2.33138 7.88676C2.22677 7.47113 2.15703 7.26838 2.38618 6.88317C2.57049 6.57398 2.63027 6.38644 2.61533 6.02657C2.60536 5.72245 2.55057 5.36764 2.93414 5.40819C3.19816 5.4386 3.45222 5.57546 3.68137 5.69204C4.88192 6.2952 5.97785 7.11126 7.27803 7.48634C9.00662 7.98813 10.7252 7.54716 12.4787 7.66374C13.0865 7.70429 13.7341 7.79552 14.2771 8.08443C14.7005 8.31252 15.0791 7.6536 14.6557 7.42551L14.6507 7.43058Z" fill="black"/>
<path d="M19.7867 6.84773C20.1966 6.84773 20.5289 6.50961 20.5289 6.09251C20.5289 5.67541 20.1966 5.33728 19.7867 5.33728C19.3767 5.33728 19.0444 5.67541 19.0444 6.09251C19.0444 6.50961 19.3767 6.84773 19.7867 6.84773Z" fill="black"/>
<path d="M14.0529 7.65873C14.1027 7.826 14.1625 7.97806 14.2422 8.13519C14.2771 8.20615 14.312 8.27711 14.3468 8.343C14.3618 8.37848 14.3817 8.40889 14.3966 8.44437C14.4016 8.45958 14.4116 8.46972 14.4166 8.48492C14.4216 8.50013 14.4614 8.56602 14.4315 8.51027C14.3966 8.44437 14.4514 8.58123 14.4465 8.54575C14.4415 8.51027 14.4465 8.56602 14.4465 8.57109C14.4465 8.66232 14.4415 8.59136 14.4465 8.58123C14.4166 8.62684 14.4963 8.5052 14.4614 8.55082C14.4614 8.55588 14.4514 8.56602 14.4465 8.57616C14.4166 8.63191 14.4465 8.55588 14.4664 8.55082C14.4415 8.55588 14.3917 8.63191 14.3717 8.64712C14.3568 8.65726 14.302 8.69781 14.3468 8.66739C14.3966 8.63698 14.3169 8.69274 14.302 8.70287C14.1426 8.81438 13.9732 8.90562 13.7989 8.98165C13.7789 8.99179 13.754 9.00192 13.7341 9.01206C13.6893 9.03234 13.8188 8.97658 13.8038 8.98165C13.774 8.99685 13.7391 9.00699 13.7092 9.0222C13.6992 9.02727 13.6843 9.03234 13.6743 9.0374C13.6943 9.02727 13.774 8.99685 13.7142 9.0222C13.6943 9.03234 13.6693 9.04247 13.6494 9.04754C13.4502 9.13371 13.2459 9.21988 13.0417 9.30097C12.8623 9.37193 12.7129 9.55947 12.7826 9.76729C12.8374 9.94469 13.0467 10.112 13.2409 10.0309C13.4352 9.94976 13.6295 9.86866 13.8188 9.78756C13.9085 9.75208 13.9931 9.71153 14.0828 9.67605C13.8835 9.76222 14.1027 9.66592 14.1625 9.64057C14.5959 9.4429 15.2186 9.11343 15.1887 8.54575C15.1787 8.31766 15.0741 8.11998 14.9745 7.9223C14.9297 7.83614 14.8848 7.74997 14.845 7.65873C14.835 7.63846 14.8251 7.61312 14.8151 7.59284C14.7852 7.53202 14.8151 7.60805 14.8101 7.57257C14.8051 7.53202 14.7852 7.4864 14.7752 7.44585C14.7204 7.25324 14.5112 7.11639 14.3169 7.18228C14.1227 7.24818 13.9981 7.44585 14.0579 7.6486L14.0529 7.65873Z" fill="black"/>
<path d="M26.7407 7.84123C27.0346 8.15548 27.3235 8.40385 27.4431 8.84482C27.5676 9.31113 27.3135 9.71155 26.8752 9.88896C26.5713 10.0157 26.2575 9.9143 25.9685 9.85348C25.6647 9.78758 25.2811 9.72676 24.9872 9.67607C24.3196 9.56456 23.9909 9.54429 23.423 9.46319C22.9398 9.39223 22.4167 9.18948 22.2274 8.71303C22.1477 8.51536 22.1029 8.32275 22.1427 8.12507C22.2174 7.75506 22.606 7.30902 22.9248 6.9897C23.0195 6.89339 23.3184 6.72613 23.5425 6.28009C23.7368 5.89994 24.1403 5.61609 24.5637 5.54513C24.7979 5.50458 25.0021 5.52993 25.2064 5.65157C25.4704 5.8087 25.6348 6.06213 25.7743 6.3257C25.9386 6.63996 26.0233 6.91367 26.2226 7.20258C26.3521 7.39519 26.5713 7.66889 26.7357 7.84123H26.7407Z" fill="#F2895F"/>
<path d="M26.4766 8.10987C26.7207 8.37344 27.1641 8.72825 27.0943 9.14388C27.0146 9.63553 26.4517 9.56964 26.108 9.49361C25.2512 9.30607 24.3844 9.23004 23.5226 9.09319C23.1788 9.03744 22.7455 8.93606 22.5811 8.58633C22.3669 8.13015 22.7205 7.75 23.0145 7.43575C23.2336 7.19752 23.4927 7.02012 23.687 6.75655C23.8165 6.58421 23.8912 6.3764 24.0456 6.22434C24.2001 6.07228 24.4093 5.9557 24.6235 5.92022C25.1565 5.82899 25.4056 6.40174 25.5949 6.80723C25.8191 7.29889 26.113 7.71452 26.4716 8.11494C26.8004 8.47482 27.3235 7.93754 26.9997 7.57767C26.8203 7.37492 26.641 7.16711 26.4965 6.93395C26.3272 6.65518 26.2176 6.34599 26.0631 6.06214C25.7692 5.52994 25.286 5.10417 24.6534 5.15486C24.0556 5.20048 23.5226 5.57049 23.2237 6.09256C22.9895 6.49805 22.611 6.74641 22.3121 7.10122C21.9086 7.5878 21.6146 8.12508 21.8488 8.7688C22.0431 9.31114 22.4964 9.63047 23.0344 9.77746C23.5724 9.92445 24.0905 9.92951 24.6085 10.0055C24.8925 10.0461 25.1764 10.0968 25.4604 10.1475C25.7792 10.2032 26.093 10.2995 26.4168 10.3299C27.0445 10.3857 27.6921 9.97006 27.8216 9.32635C27.9661 8.6066 27.448 8.05919 27.0047 7.58274C26.6709 7.22793 26.1428 7.76521 26.4766 8.12001V8.10987Z" fill="black"/>
</g>
<defs>
<clipPath id="clip0_3106_3223">
<rect width="31" height="24" fill="white"/>
</clipPath>
</defs>
</svg>
