<svg xmlns="http://www.w3.org/2000/svg" width="35" height="40" viewBox="0 0 35 40" fill="none">
<path d="M4.83736 12.3821C6.61041 10.3541 8.48511 8.43266 10.6083 6.7677C11.4553 6.10301 12.249 5.58997 13.3219 5.44315C13.4187 5.43025 13.6236 5.58997 13.4929 5.40766C13.5881 5.53834 13.5365 5.80938 13.5123 5.95297C13.4187 6.52086 13.1928 7.0581 12.9347 7.56791C11.6553 10.0879 10.1969 12.5225 8.87231 15.0199C7.54776 17.5173 6.09899 20.1487 4.71958 22.7187C3.18369 25.5808 1.75912 28.4993 0.202248 31.3501C-0.702833 33.0086 1.66232 34.346 2.70937 32.815C3.63704 31.4598 4.30173 29.8642 5.13582 28.4445C5.907 27.1312 6.71851 25.8422 7.55905 24.5725C9.33211 21.8959 11.1261 19.2033 13.0525 16.6349C15.103 13.9003 17.3778 11.3254 19.8059 8.9215C21.9774 6.77093 24.3039 4.53646 27.1917 3.37486C28.3211 2.9199 29.7956 2.54399 30.925 3.20868C32.1318 3.91855 31.8865 5.41895 31.5461 6.55474C31.0799 8.10838 30.2813 9.52811 29.4875 10.9333C28.647 12.4224 27.8354 13.9277 26.9626 15.399C25.2251 18.3337 23.373 21.2135 21.9371 24.3127C20.6609 27.0667 19.4445 30.1401 19.3267 33.2103C19.2622 34.9091 19.6526 36.7031 20.7481 38.039C21.7435 39.2554 23.2762 39.854 24.8104 39.9782C28.3937 40.267 31.125 37.6372 33.2772 35.1204C33.787 34.5251 33.8629 33.6523 33.2772 33.0667C32.7561 32.5456 31.7349 32.4681 31.2234 33.0667C29.5924 34.9752 27.3998 37.5695 24.5717 37.0355C21.7435 36.5015 22.05 33.1231 22.5808 30.9887C24.1748 24.5805 28.2468 19.0952 31.4235 13.4098C32.9804 10.6236 35.2003 7.31462 34.6405 3.95727C34.0661 0.50635 30.3458 -0.555224 27.3579 0.261123C24.3103 1.0936 21.5773 3.20707 19.3219 5.3399C16.8164 7.70989 14.4544 10.2315 12.291 12.9193C9.91291 15.8717 7.80589 19.0274 5.68113 22.1638C4.73733 23.5577 3.82418 24.9726 2.95782 26.4165C2.49641 27.1861 2.04952 27.9637 1.61392 28.7462C1.14121 29.5964 0.745942 30.5466 0.197408 31.3485L2.70453 32.8134C4.2856 29.9174 5.72953 26.9489 7.29447 24.0449C8.90135 21.0635 10.5034 18.0804 12.1135 15.1006C12.904 13.6373 13.7075 12.1804 14.5093 10.7236C15.2224 9.42809 16.0468 8.1229 16.3211 6.6467C16.5953 5.1705 16.2517 3.62493 14.8029 2.90699C13.3542 2.18906 11.7134 2.63434 10.4017 3.38131C8.97717 4.19282 7.6736 5.36733 6.47328 6.47246C5.16325 7.67923 3.95164 8.98442 2.78036 10.3251C1.60908 11.6658 3.60154 13.7889 4.83413 12.3789L4.83736 12.3821Z" fill="#7E716C"/>
<path d="M23.5679 22.7025C20.6994 21.57 17.4759 21.3006 14.4186 21.3732C9.95939 21.4812 5.53078 22.396 1.29901 23.7706C-0.470819 24.3449 0.285835 27.1505 2.0718 26.5713C6.06641 25.2742 10.2095 24.3804 14.4203 24.2772C17.2517 24.2078 20.1428 24.453 22.7983 25.5033C23.5275 25.7921 24.3923 25.1871 24.5843 24.4885C24.8101 23.6641 24.3019 22.9913 23.5695 22.7025H23.5679Z" fill="#7E716C"/>
</svg>